<svg width="900" height="1200" viewBox="0 0 900 1200" fill="none" xmlns="http://www.w3.org/2000/svg">
<rect width="900" height="1200" fill="white"/>
<rect y="800" width="900" height="400" fill="black"/>
<rect width="100" height="100" transform="translate(800 700)" fill="#00E37C"/>
<rect width="100" height="100" transform="translate(700 700)" fill="#7BF92F"/>
<rect width="100" height="100" transform="translate(600 700)" fill="#CDEE00"/>
<rect width="100" height="100" transform="translate(500 700)" fill="#FFE800"/>
<rect width="100" height="100" transform="translate(400 700)" fill="#FD791A"/>
<rect width="100" height="100" transform="translate(300 700)" fill="#FA4848"/>
<rect width="100" height="100" transform="translate(200 700)" fill="#F246C9"/>
<rect width="100" height="100" transform="translate(100 700)" fill="#CE45FF"/>
<rect width="100" height="100" transform="translate(0 700)" fill="#7311FF"/>
<rect width="100" height="100" transform="translate(800 600)" fill="#0085FF"/>
<rect width="100" height="100" transform="translate(700 600)" fill="#20B0EC"/>
<rect width="100" height="100" transform="translate(600 600)" fill="#00EDCF"/>
<rect width="100" height="100" transform="translate(500 600)" fill="white"/>
<rect width="100" height="100" transform="translate(400 600)" fill="#CCCCCC"/>
<rect width="300" height="100" transform="translate(100 600)" fill="black"/>
<rect width="100" height="100" transform="translate(200 200)" fill="white"/>
<path d="M251.421 200C251.421 203.689 251.892 206.593 252.834 208.556C253.776 210.518 254.953 212.009 256.444 212.873C257.936 213.815 260.133 214.757 263.038 215.777C271.122 218.603 276.695 222.292 279.678 227.002C282.661 231.711 284.152 237.441 284.152 244.113C284.152 250.157 282.425 256.279 278.972 262.402L276.224 261.303C278.815 256.907 280.149 251.491 280.149 244.976C280.149 239.246 277.402 234.615 271.986 231.162C266.57 227.708 259.662 225.903 251.421 225.903V279.513C251.421 284.772 248.987 289.56 244.042 293.721C239.097 297.959 233.681 300 227.794 300C223.791 300 220.573 299.058 218.375 297.174C216.099 295.29 215 292.622 215 289.246C215 283.987 217.433 279.199 222.378 275.039C227.323 270.879 232.739 268.76 238.705 268.76C241.923 268.76 244.592 269.388 246.711 270.722V200H251.499H251.421Z" fill="black"/>
<rect width="100" height="100" transform="translate(100 200)" fill="white"/>
<path d="M143.076 208H156.924C169.534 208 179.81 212.301 187.901 220.829C195.991 229.357 200 239.052 200 249.84C200 256.91 198.178 263.981 194.606 270.978C191.035 277.976 185.787 283.37 178.79 287.16C171.793 290.951 164.504 292.846 156.924 292.846H143.076C130.612 292.846 120.335 288.618 112.172 280.236C104.009 271.853 100 262.086 100 251.006C100 243.498 101.895 236.282 105.612 229.284C109.329 222.287 114.723 216.966 121.72 213.394C128.717 209.822 135.86 208 143.076 208ZM142.347 289.784C153.28 289.784 162.609 285.921 170.262 278.195C177.915 270.468 181.778 261.211 181.778 250.35C181.778 239.489 177.915 230.378 170.19 222.578C162.464 214.779 153.207 210.916 142.347 210.916C131.487 210.916 122.23 214.779 114.504 222.578C106.778 230.378 102.915 239.635 102.915 250.35C102.915 261.065 106.778 270.468 114.504 278.195C122.23 285.921 131.487 289.784 142.347 289.784Z" fill="black"/>
<rect width="100" height="100" transform="translate(0 200)" fill="white"/>
<path d="M32.91 226.19C30.44 225.4 27.86 225 25.16 225C20.68 225 16.49 226.12 12.6 228.36C8.71 230.6 5.61 233.67 3.37 237.56C1.12 241.46 0 245.64 0 250.13C0 254.62 1.12 258.8 3.36 262.69C5.6 266.58 8.7 269.65 12.59 271.89C16.48 274.13 20.67 275.25 25.15 275.25C27.85 275.25 30.43 274.85 32.9 274.06C27.13 272.64 22.48 269.71 18.98 265.22C15.48 260.73 13.74 255.69 13.74 250.12C13.74 244.55 15.49 239.5 18.98 235.02C22.47 230.54 27.14 227.61 32.91 226.19ZM16.23 232.87C12.26 237.96 10.25 243.77 10.25 250.13C10.25 256.49 12.26 262.29 16.23 267.39C17.28 268.74 18.43 269.97 19.67 271.08C17.84 270.6 16.07 269.87 14.34 268.87C10.98 266.93 8.3 264.27 6.39 260.95C4.44 257.57 3.49 254.03 3.49 250.13C3.49 246.23 4.44 242.69 6.39 239.31C8.3 236 10.97 233.33 14.34 231.39C16.07 230.4 17.83 229.66 19.67 229.18C18.43 230.29 17.28 231.52 16.23 232.87Z" fill="black"/>
<path d="M96.64 237.56C94.4 233.67 91.3 230.6 87.41 228.36C83.52 226.12 79.33 225 74.85 225C72.15 225 69.57 225.4 67.1 226.19C72.87 227.61 77.52 230.54 81.02 235.03C84.52 239.52 86.26 244.56 86.26 250.13C86.26 255.7 84.51 260.75 81.02 265.23C77.53 269.71 72.87 272.65 67.1 274.07C69.57 274.86 72.15 275.26 74.85 275.26C79.33 275.26 83.52 274.14 87.41 271.9C91.3 269.66 94.4 266.59 96.64 262.7C98.88 258.81 100 254.62 100 250.14C100 245.66 98.88 241.47 96.64 237.58V237.56ZM93.61 260.94C91.7 264.25 89.03 266.92 85.66 268.86C83.93 269.85 82.17 270.59 80.33 271.07C81.57 269.96 82.72 268.73 83.77 267.38C87.74 262.29 89.75 256.48 89.75 250.12C89.75 243.76 87.74 237.96 83.77 232.86C82.72 231.51 81.57 230.28 80.33 229.17C82.16 229.65 83.93 230.38 85.66 231.38C89.02 233.32 91.7 235.98 93.61 239.3C95.56 242.68 96.51 246.22 96.51 250.12C96.51 254.02 95.56 257.56 93.61 260.94Z" fill="black"/>
<path d="M60.7 251.88H67.09V248.38H60.7C60.43 246.69 59.76 245.13 58.8 243.8L63.32 239.28L60.85 236.81L56.33 241.33C55 240.37 53.44 239.71 51.75 239.43V233.04H48.25V239.43C46.56 239.7 45 240.37 43.67 241.33L39.15 236.81L36.68 239.28L41.2 243.8C40.24 245.13 39.58 246.69 39.3 248.38H32.91V251.88H39.3C39.57 253.57 40.24 255.13 41.2 256.46L36.68 260.98L39.15 263.45L43.67 258.93C45 259.89 46.56 260.55 48.25 260.83V267.22H51.75V260.83C53.44 260.56 55 259.89 56.33 258.93L60.85 263.45L63.32 260.98L58.8 256.46C59.76 255.13 60.42 253.57 60.7 251.88ZM50 257.48C45.95 257.48 42.65 254.18 42.65 250.13C42.65 246.08 45.95 242.78 50 242.78C54.05 242.78 57.35 246.08 57.35 250.13C57.35 254.18 54.05 257.48 50 257.48Z" fill="black"/>
<path d="M251.421 800C251.421 803.689 251.892 806.593 252.834 808.556C253.776 810.518 254.953 812.009 256.444 812.873C257.936 813.815 260.133 814.757 263.038 815.777C271.122 818.603 276.695 822.292 279.678 827.002C282.661 831.711 284.152 837.441 284.152 844.113C284.152 850.157 282.425 856.279 278.972 862.402L276.224 861.303C278.815 856.907 280.149 851.491 280.149 844.976C280.149 839.246 277.402 834.615 271.986 831.162C266.57 827.708 259.662 825.903 251.421 825.903V879.513C251.421 884.772 248.987 889.56 244.042 893.721C239.097 897.959 233.681 900 227.794 900C223.791 900 220.573 899.058 218.375 897.174C216.099 895.29 215 892.622 215 889.246C215 883.987 217.433 879.199 222.378 875.039C227.323 870.879 232.739 868.76 238.705 868.76C241.923 868.76 244.592 869.388 246.711 870.722V800H251.499H251.421Z" fill="white"/>
<g clip-path="url(#clip0_1_3547)">
<path d="M500 284.946C500 288.978 498.527 292.608 495.449 295.564C492.37 298.521 488.889 300 484.873 300H415.127C411.111 300 407.63 298.521 404.551 295.564C401.473 292.608 400 288.978 400 284.946V215.054C400 210.887 401.473 207.392 404.551 204.436C407.63 201.479 411.111 200 415.127 200H484.873C488.889 200 492.37 201.479 495.449 204.436C498.527 207.392 500 211.022 500 215.054V284.946ZM491.432 284.946V215.054C491.432 213.306 490.763 211.828 489.558 210.484C488.22 209.14 486.747 208.468 485.007 208.468H415.261C413.521 208.468 412.048 209.14 410.71 210.484C409.371 211.828 408.835 213.306 408.835 215.054V284.946C408.835 286.694 409.505 288.172 410.71 289.516C412.048 290.86 413.521 291.532 415.261 291.532H485.007C486.747 291.532 488.22 290.86 489.558 289.516C490.897 288.172 491.432 286.694 491.432 284.946Z" fill="black"/>
</g>
<g clip-path="url(#clip1_1_3547)">
<path d="M800 250C800 277.614 777.614 300 750 300C722.386 300 700 277.614 700 250C700 222.386 722.386 200 750 200C777.614 200 800 222.386 800 250Z" fill="black"/>
</g>
<path d="M900 452.036C888.915 456.046 880.346 462.65 874.135 471.692H869.34C871.541 465.323 875.079 459.348 880.11 453.687H870.44C867.06 461.549 865.173 465.874 864.78 466.503C864.387 467.132 863.679 467.446 862.657 467.446C861.871 467.446 861.321 467.21 860.928 466.817C860.535 466.424 859.434 464.144 857.547 459.898L851.258 445.196C850.943 444.489 850.55 444.095 850.079 444.095C849.686 444.095 849.45 444.174 849.292 444.41C849.135 444.646 848.113 446.847 846.226 451.172L840.094 465.323C839.623 466.66 838.679 467.368 837.343 467.368C836.164 467.368 835.22 466.66 834.591 465.323L829.56 453.609H819.89C824.921 459.27 828.459 465.245 830.66 471.613H825.865C819.654 462.572 811.006 456.046 800 451.958V448.656C811.085 444.646 819.654 438.042 825.865 429H830.66C828.459 435.368 824.921 441.422 819.89 447.005H832.39C834.906 452.744 836.242 455.732 836.399 456.046C836.557 456.361 836.871 456.518 837.264 456.518C837.579 456.518 837.814 456.439 838.05 456.203C838.286 455.967 839.23 453.687 841.116 449.442L847.327 435.29C847.799 433.953 848.742 433.324 850.079 433.324C850.865 433.324 851.415 433.481 851.808 433.875C852.201 434.268 853.302 436.548 855.11 440.793L861.478 455.496C861.714 456.203 862.107 456.596 862.657 456.596C863.208 456.596 863.522 456.36 863.758 455.967L867.61 447.083H880.11C875.079 441.422 871.462 435.447 869.34 429.079H874.135C880.346 438.12 888.994 444.646 900 448.734V452.036Z" fill="black"/>
<g clip-path="url(#clip2_1_3547)">
<path d="M400 200V300H300V200H400Z" fill="black"/>
</g>
<g clip-path="url(#clip3_1_3547)">
<path d="M300 350L250 400L200 350L250 300L300 350Z" fill="black"/>
</g>
<g clip-path="url(#clip4_1_3547)">
<path d="M808.614 245.013H800C800.942 234.367 804.98 225.202 811.978 217.116L811.44 216.712L811.844 216.981L815.478 220.755C817.227 222.642 818.035 223.585 818.035 223.585C812.786 229.65 809.69 236.792 808.748 245.013H808.614ZM817.227 275.606C812.786 280.054 810.633 282.345 810.767 282.345L811.171 281.941C804.441 273.989 800.808 264.421 800 253.369H808.614C809.421 261.86 812.248 269.272 817.227 275.472V275.606ZM845.76 299.865C835.262 299.191 825.841 295.283 817.227 288.005L823.284 281.941C830.148 287.197 837.55 290.297 845.76 291.24V299.865ZM845.76 208.625C837.954 209.164 830.686 212.129 823.957 217.386C823.957 217.386 821.803 215.094 817.631 210.916L817.9 211.186C826.245 204.447 835.397 200.674 845.76 200V208.625ZM881.83 211.186L875.774 217.251C869.179 212.264 862.046 209.434 853.97 208.76V200.135C864.199 200.809 873.486 204.582 881.83 211.321V211.186ZM882.503 288.14C874.024 295.418 864.468 299.326 853.97 300V291.375C862.046 290.701 869.583 287.601 876.447 282.075L882.503 288.14ZM899.865 245.148H891.252C890.31 236.927 887.214 229.65 881.965 223.45L888.022 217.251C895.02 225.202 899.058 234.501 900 245.148H899.865ZM899.865 253.639C899.058 264.69 895.289 274.124 888.56 282.21L882.503 276.011C887.483 269.542 890.444 262.129 891.117 253.639H899.731H899.865Z" fill="black"/>
</g>
<g clip-path="url(#clip5_1_3547)">
<path d="M300 458.452C280.024 458.452 262.728 461.904 248.356 468.928C233.983 475.952 223.873 486.31 218.392 500H200C203.898 489.762 210.231 480.238 218.879 471.428C227.527 462.619 239.342 455.952 254.202 451.429C256.517 450.714 257.856 450.238 258.344 450C257.978 449.762 256.517 449.286 254.202 448.571C239.342 444.048 227.649 437.381 218.879 428.572C210.231 419.762 203.898 410.238 200 400H218.392C223.995 413.809 233.983 424.166 248.356 431.071C262.728 437.976 280.024 441.547 300 441.547V458.452Z" fill="black"/>
</g>
<g clip-path="url(#clip6_1_3547)">
<path d="M200 500H181.608C176.005 486.191 166.017 475.833 151.644 468.928C137.272 462.023 119.976 458.452 100 458.452V441.547C119.976 441.547 137.272 438.095 151.644 431.071C166.017 424.047 176.127 413.69 181.608 400H200C196.102 410.238 189.769 419.881 181.121 428.572C172.473 437.381 160.658 444.048 145.798 448.571C143.483 449.286 142.144 449.762 141.656 450C142.022 450.238 143.483 450.714 145.798 451.429C160.658 455.952 172.351 462.619 181.121 471.428C189.769 480.238 196.102 489.762 200 500Z" fill="black"/>
</g>
<g clip-path="url(#clip7_1_3547)">
<path d="M700 300.007H600V200H700V300.007ZM649.952 285.885C659.846 285.885 668.3 282.331 675.312 275.318C682.325 268.305 685.879 259.851 685.879 250.052C685.879 240.253 682.325 231.703 675.312 224.69C668.3 217.677 659.846 214.122 649.952 214.122C640.058 214.122 631.7 217.677 624.688 224.69C617.675 231.703 614.121 240.157 614.121 250.052C614.121 259.947 617.675 268.305 624.688 275.318C631.7 282.331 640.154 285.885 649.952 285.885Z" fill="black"/>
</g>
<g clip-path="url(#clip8_1_3547)">
<path d="M600 200V300H500V200H600ZM550 208.591H508.713V291.544H550V208.591Z" fill="black"/>
</g>
<g clip-path="url(#clip9_1_3547)">
<path d="M47.2335 400H52.9271C55.1725 413.552 60.9463 424.539 70.2487 432.959C79.551 441.379 89.4948 446.111 100 447.233V452.927C89.2542 454.05 79.2302 458.861 70.0081 467.281C60.786 475.702 55.0922 486.608 52.8468 500H47.1532C44.988 486.367 39.2944 475.381 29.9119 467.041C20.5294 458.701 10.5854 453.97 0 452.847V447.153C10.6656 445.95 20.6096 441.219 29.9921 432.799C39.3747 424.379 45.0682 413.472 47.1532 400H47.2335Z" fill="black"/>
</g>
<path d="M341.207 544.667H321.481C317.552 544.667 314.504 544.346 312.42 543.705C310.335 543.063 308.41 541.54 306.646 539.294C304.882 537.049 304.08 534.403 304.08 531.596C304.08 527.827 305.443 524.699 308.09 522.213C310.816 519.727 313.863 518.524 317.391 518.524C319.235 518.524 320.759 518.765 321.962 519.246L324.768 520.288C325.41 520.529 326.292 521.572 327.495 523.416L341.207 544.667ZM341.207 554.531C333.749 565.597 329.339 572.334 327.735 574.659C326.132 576.985 324.528 578.669 322.764 579.471C321 580.273 319.155 580.674 317.231 580.674C313.622 580.674 310.575 579.471 307.929 576.985C305.283 574.499 304 571.451 304 567.762C304 564.074 305.283 560.866 307.769 558.3C310.255 555.734 313.221 554.531 316.67 554.531H341.126H341.207ZM349.706 540.497C341.848 525.822 337.759 517.963 337.278 517.001C336.796 516.038 336.636 514.595 336.636 512.75C336.636 509.302 337.839 506.255 340.244 503.769C342.65 501.283 345.777 500 349.626 500C353.475 500 356.603 501.283 359.088 503.769C361.574 506.255 362.857 509.382 362.857 513.151C362.857 514.835 362.376 516.6 361.334 518.605L349.626 540.497H349.706ZM349.706 559.583L361.414 581.476C362.055 582.678 362.456 583.641 362.697 584.443C362.937 585.245 363.017 586.207 363.017 587.329C363.017 590.537 361.815 593.424 359.329 596.071C356.843 598.717 353.716 600 349.787 600C345.857 600 342.891 598.717 340.405 596.231C337.919 593.745 336.716 590.617 336.716 586.848C336.716 585.244 337.197 583.4 338.24 581.476L349.787 559.503L349.706 559.583ZM358.206 544.747L369.593 527.105C371.838 523.657 373.201 521.652 373.682 521.091C374.163 520.529 375.286 519.968 376.97 519.406C378.654 518.845 380.418 518.524 382.182 518.524C385.55 518.524 388.597 519.727 391.243 522.213C393.969 524.699 395.333 527.827 395.333 531.596C395.333 534.322 394.451 536.808 392.767 539.214C391.083 541.539 389.078 543.063 386.993 543.705C384.908 544.346 381.861 544.667 378.012 544.667H358.286L358.206 544.747ZM358.206 554.611H382.824C386.191 554.611 389.158 555.894 391.644 558.38C394.13 560.866 395.333 564.074 395.333 567.843C395.333 571.612 394.05 574.659 391.484 577.145C388.918 579.551 385.71 580.754 381.861 580.754C378.012 580.754 374.564 578.909 372.159 575.301L358.206 554.611Z" fill="black"/>
<g clip-path="url(#clip10_1_3547)">
<path d="M100 350.042C100 363.821 95.0972 375.57 85.2916 385.376C75.4861 395.097 63.7363 400 49.9577 400C36.1792 400 24.4294 395.097 14.6238 385.376C4.81826 375.655 0 363.821 0 350.042C0 336.264 4.90279 324.429 14.6238 314.708C24.3449 304.987 36.1792 300 49.9577 300C63.7363 300 75.5706 304.903 85.2916 314.708C95.0972 324.514 100 336.264 100 350.042ZM92.8994 350.042C92.8994 338.292 88.6729 328.149 80.3043 319.696C71.8512 311.243 61.7921 307.101 49.9577 307.101C38.1234 307.101 28.0642 311.327 19.6112 319.696C11.1581 328.149 7.01606 338.208 7.01606 350.042C7.01606 361.876 11.2426 371.936 19.6112 380.389C28.0642 388.842 38.1234 392.984 49.9577 392.984C61.7921 392.984 71.8512 388.757 80.3043 380.389C88.7574 371.936 92.8994 361.876 92.8994 350.042ZM82.2485 353.593H56.1285L69.1463 376.247L62.9755 379.797L49.9577 357.227L36.94 379.797L30.7692 376.247L43.787 353.593H17.7515V346.577H43.787L30.7692 323.838L36.94 320.288L49.9577 342.942L62.9755 320.288L69.1463 323.838L56.1285 346.577H82.2485V353.593Z" fill="black"/>
</g>
<g clip-path="url(#clip11_1_3547)">
<path d="M500 500.046H400V490.07H500V500.046ZM449.88 401C461.058 401 470.673 404.967 478.726 413.02C486.779 421.074 490.745 430.69 490.745 441.869C490.745 453.047 486.779 462.663 478.726 470.717C470.673 478.77 461.058 482.737 449.88 482.737C438.702 482.737 429.087 478.77 421.034 470.717C412.981 462.663 409.014 453.168 409.014 441.869C409.014 430.57 412.981 421.074 421.034 413.02C429.087 404.967 438.582 401 449.88 401ZM449.88 472.76C458.413 472.76 465.745 469.755 471.755 463.745C477.764 457.735 480.769 450.403 480.769 441.989C480.769 433.575 477.764 426.122 471.755 420.112C465.745 414.102 458.413 411.097 449.88 411.097C441.346 411.097 434.135 414.102 428.125 420.112C422.115 426.122 419.111 433.335 419.111 441.989C419.111 450.644 422.115 457.735 428.125 463.745C434.135 469.755 441.466 472.76 449.88 472.76Z" fill="black"/>
</g>
<path d="M900 350.303C900 354.857 898.452 358.683 895.264 361.871C892.077 365.059 888.251 366.607 883.698 366.607C879.872 366.607 876.503 365.423 873.679 363.055C870.765 360.687 868.852 357.681 868.033 354.129H832.149C831.239 357.681 829.417 360.687 826.412 363.055C823.497 365.423 820.128 366.607 816.302 366.607C811.749 366.607 807.924 365.059 804.736 361.871C801.548 358.683 800 354.857 800 350.303C800 345.749 801.548 341.924 804.736 338.736C807.924 335.548 811.749 334 816.302 334C820.128 334 823.497 335.184 826.412 337.552C829.326 339.92 831.239 342.926 832.149 346.478H868.033C868.944 342.926 870.765 339.92 873.679 337.552C876.594 335.184 879.964 334 883.698 334C888.251 334 892.077 335.548 895.264 338.736C898.452 341.924 900 345.749 900 350.303ZM825.046 350.303C825.046 347.935 824.226 345.932 822.495 344.201C820.765 342.471 818.761 341.651 816.393 341.651C814.026 341.651 812.022 342.471 810.291 344.201C808.561 345.932 807.741 347.935 807.741 350.303C807.741 352.671 808.561 354.675 810.291 356.406C812.022 358.136 814.026 358.956 816.393 358.956C818.761 358.956 820.765 358.136 822.495 356.406C824.226 354.675 825.046 352.671 825.046 350.303Z" fill="black"/>
<path d="M100 549.439L47.5511 598.082H46.5986V572.706H0V526.24H46.5986V501H47.5511L100 549.439Z" fill="black"/>
<g clip-path="url(#clip12_1_3547)">
<path d="M674.415 549.958L700 557.573L699.164 562.259L672.492 559.331L693.227 576.234L690.719 580L667.391 567.281L679.849 590.795L676.254 593.306L659.365 572.72L662.124 599.163L657.692 600L649.833 574.477L642.308 600L637.625 599.163L640.385 572.72L623.746 593.306L619.9 590.795L632.525 567.281L609.114 580L606.605 576.234L627.508 559.331L600.836 562.259L600 557.573L625.167 549.958L600 542.427L600.836 537.741L627.508 540.669L606.605 523.766L609.114 520L632.525 532.72L619.9 509.205L623.746 506.694L640.385 527.28L637.625 500.837L642.308 500L649.833 525.523L657.692 500L662.124 500.837L659.365 527.28L676.254 506.694L679.849 509.205L667.391 532.72L690.719 520L693.227 523.766L672.492 540.669L699.164 537.741L700 542.427L674.415 549.958Z" fill="black"/>
</g>
<g clip-path="url(#clip13_1_3547)">
<path d="M714.06 304.5C719.33 304.5 723.62 308.79 723.62 314.06C723.62 319.33 719.33 323.62 714.06 323.62C708.79 323.62 704.5 319.33 704.5 314.06C704.5 308.79 708.79 304.5 714.06 304.5ZM714.06 300C706.29 300 700 306.29 700 314.06C700 321.83 706.29 328.12 714.06 328.12C721.83 328.12 728.12 321.83 728.12 314.06C728.12 306.29 721.82 300 714.06 300Z" fill="black"/>
<path d="M785.94 304.5C791.21 304.5 795.5 308.79 795.5 314.06C795.5 319.33 791.21 323.62 785.94 323.62C780.67 323.62 776.38 319.33 776.38 314.06C776.38 308.79 780.67 304.5 785.94 304.5ZM785.94 300C778.18 300 771.88 306.29 771.88 314.06C771.88 321.83 778.17 328.12 785.94 328.12C793.71 328.12 800 321.83 800 314.06C800 306.29 793.71 300 785.94 300Z" fill="black"/>
<path d="M714.06 376.38C719.33 376.38 723.62 380.67 723.62 385.94C723.62 391.21 719.33 395.5 714.06 395.5C708.79 395.5 704.5 391.21 704.5 385.94C704.5 380.67 708.79 376.38 714.06 376.38ZM714.06 371.88C706.3 371.88 700 378.17 700 385.94C700 393.71 706.29 400 714.06 400C721.83 400 728.12 393.71 728.12 385.94C728.12 378.17 721.83 371.88 714.06 371.88Z" fill="black"/>
<path d="M750 376.38C755.27 376.38 759.56 380.67 759.56 385.94C759.56 391.21 755.27 395.5 750 395.5C744.73 395.5 740.44 391.21 740.44 385.94C740.44 380.67 744.73 376.38 750 376.38ZM750 371.88C742.24 371.88 735.94 378.17 735.94 385.94C735.94 393.71 742.23 400 750 400C757.77 400 764.06 393.71 764.06 385.94C764.06 378.17 757.77 371.88 750 371.88Z" fill="black"/>
<path d="M750 340.44C755.27 340.44 759.56 344.73 759.56 350C759.56 355.27 755.27 359.56 750 359.56C744.73 359.56 740.44 355.27 740.44 350C740.44 344.73 744.73 340.44 750 340.44ZM750 335.94C742.24 335.94 735.94 342.23 735.94 350C735.94 357.77 742.23 364.06 750 364.06C757.77 364.06 764.06 357.77 764.06 350C764.06 342.23 757.77 335.94 750 335.94Z" fill="black"/>
<path d="M714.06 340.44C719.33 340.44 723.62 344.73 723.62 350C723.62 355.27 719.33 359.56 714.06 359.56C708.79 359.56 704.5 355.27 704.5 350C704.5 344.73 708.79 340.44 714.06 340.44ZM714.06 335.94C706.29 335.94 700 342.24 700 350C700 357.76 706.29 364.06 714.06 364.06C721.83 364.06 728.12 357.77 728.12 350C728.12 342.23 721.83 335.94 714.06 335.94Z" fill="black"/>
<path d="M785.94 340.44C791.21 340.44 795.5 344.73 795.5 350C795.5 355.27 791.21 359.56 785.94 359.56C780.67 359.56 776.38 355.27 776.38 350C776.38 344.73 780.67 340.44 785.94 340.44ZM785.94 335.94C778.18 335.94 771.88 342.23 771.88 350C771.88 357.77 778.17 364.06 785.94 364.06C793.71 364.06 800 357.77 800 350C800 342.23 793.71 335.94 785.94 335.94Z" fill="black"/>
<path d="M750 304.5C755.27 304.5 759.56 308.79 759.56 314.06C759.56 319.33 755.27 323.62 750 323.62C744.73 323.62 740.44 319.33 740.44 314.06C740.44 308.79 744.73 304.5 750 304.5ZM750 300C742.24 300 735.94 306.29 735.94 314.06C735.94 321.83 742.23 328.12 750 328.12C757.77 328.12 764.06 321.83 764.06 314.06C764.06 306.29 757.76 300 750 300Z" fill="black"/>
<path d="M785.94 376.38C791.21 376.38 795.5 380.67 795.5 385.94C795.5 391.21 791.21 395.5 785.94 395.5C780.67 395.5 776.38 391.21 776.38 385.94C776.38 380.67 780.67 376.38 785.94 376.38ZM785.94 371.88C778.18 371.88 771.88 378.17 771.88 385.94C771.88 393.71 778.17 400 785.94 400C793.71 400 800 393.71 800 385.94C800 378.17 793.71 371.88 785.94 371.88Z" fill="black"/>
</g>
<path d="M562.358 420.68C562.358 417.371 561.086 414.431 558.541 411.949C555.996 409.467 553.087 408.18 549.724 408.18C546.361 408.18 543.543 409.375 540.998 411.765C538.453 414.155 537.18 417.004 537.18 420.129V446.59H529.273L529.091 421.232C529.091 415.258 531.091 410.203 535.181 406.158C539.271 402.114 544.179 400 550.087 400C555.995 400 560.631 402.115 564.63 406.434C568.539 410.754 570.538 415.993 570.538 422.151V446.59H562.449V420.589L562.358 420.68ZM562.358 454.41H570.538V477.85C570.538 484.1 568.539 489.339 564.54 493.567C560.631 497.886 555.814 500 549.997 500C544.179 500 539.089 497.979 535.09 493.843C531 489.799 529 484.743 529 478.769L529.182 454.412L537.089 454.41V479.872C537.089 482.997 538.362 485.846 540.907 488.236C543.452 490.626 546.361 491.821 549.633 491.821C552.905 491.821 555.905 490.534 558.45 488.052C560.995 485.571 562.267 482.629 562.267 479.32V454.41H562.358Z" fill="black"/>
<path d="M307.092 375.091C307.092 365.866 307.092 357.472 307.092 350.184V327.306C307.092 325.83 307.092 325.092 307.092 325.092C307.092 325.092 307.646 324.723 308.845 323.985C310.044 323.247 311.704 322.324 313.734 321.125C315.763 319.925 318.069 318.635 320.652 317.066C323.235 315.498 325.91 314.022 328.585 312.454C334.95 308.856 342.145 304.705 350.263 300L393.525 325V374.999L350.263 400L307 374.999L307.092 375.091Z" fill="black"/>
<path d="M700 375.5C700 377.477 699.62 379.302 698.935 381.051C698.251 382.8 697.262 384.245 695.97 385.538C694.753 386.831 693.232 387.82 691.559 388.58C689.886 389.341 688.061 389.645 686.084 389.645C684.563 389.645 683.118 389.417 681.673 388.961C680.228 388.505 678.935 387.82 677.719 386.983C676.502 386.147 675.437 385.082 674.601 383.941C673.688 382.724 673.004 381.431 672.548 379.986C669.582 383.104 666.16 385.463 662.281 387.136C658.403 388.809 654.297 389.645 650.038 389.645C645.779 389.645 641.597 388.809 637.719 387.136C633.764 385.463 630.342 383.104 627.376 379.986C626.92 381.431 626.236 382.8 625.399 383.941C624.563 385.082 623.498 386.147 622.357 386.983C621.217 387.82 619.924 388.505 618.555 388.961C617.186 389.417 615.742 389.645 614.221 389.645C612.243 389.645 610.418 389.265 608.669 388.58C606.92 387.82 605.475 386.831 604.183 385.614C602.89 384.321 601.901 382.876 601.141 381.127C600.38 379.378 600 377.553 600 375.576C600 373.598 600.38 371.772 601.065 370.099C601.825 368.426 602.814 366.906 604.031 365.689C605.323 364.472 606.768 363.483 608.441 362.723C610.114 361.962 611.939 361.658 613.916 361.658C615.741 361.658 617.491 361.962 619.164 362.646C619.087 361.962 619 360.5 619 360.5C619 360.5 618.935 359.225 618.935 358.464C618.935 355.194 619.468 352 620.532 348.882C621.597 345.764 623.042 343.026 624.943 340.44C626.844 337.854 629.05 335.649 631.711 333.748C634.297 331.846 637.186 330.325 640.304 329.336C638.859 328.043 637.719 326.446 636.882 324.621C636.046 322.796 635.665 320.894 635.665 318.917C635.665 316.94 636.046 315.115 636.73 313.442C637.414 311.768 638.479 310.248 639.696 309.031C640.913 307.814 642.434 306.749 644.183 306.065C645.932 305.304 647.757 305 649.658 305C651.559 305 653.384 305.38 655.133 306.065C656.882 306.825 658.327 307.814 659.62 309.031C660.913 310.248 661.901 311.768 662.662 313.442C663.422 315.115 663.726 316.94 663.726 318.917C663.726 320.894 663.346 322.72 662.586 324.545C661.825 326.37 660.76 327.967 659.316 329.336C662.89 330.477 666.16 332.15 668.973 334.356C671.787 336.561 674.144 339.223 676.046 342.113C677.947 345.079 679.24 348.349 680.076 351.848C680.837 355.346 681.065 358.996 680.608 362.723C682.281 362.114 684.03 361.734 685.856 361.734C687.757 361.734 689.582 362.114 691.331 362.799C693.08 363.483 694.525 364.472 695.817 365.765C697.11 367.058 698.099 368.502 698.783 370.175C699.468 371.849 700 373.522 700 375.5ZM622.814 375.576C622.814 374.359 622.662 373.141 622.205 372.077C621.749 371.012 621.065 370.023 620.304 369.263C619.468 368.426 618.555 367.818 617.415 367.362C616.35 366.905 615.209 366.677 613.992 366.677C612.776 366.677 611.559 366.905 610.494 367.362C609.43 367.818 608.441 368.426 607.681 369.263C606.844 370.099 606.236 371.012 605.78 372.077C605.323 373.141 605.095 374.283 605.095 375.576C605.095 376.869 605.323 378.009 605.78 379.074C606.236 380.139 606.92 381.127 607.681 381.964C608.517 382.8 609.43 383.409 610.57 383.865C611.711 384.321 612.852 384.549 614.068 384.549C615.285 384.549 616.502 384.321 617.567 383.865C618.631 383.409 619.544 382.724 620.304 381.964C621.065 381.203 621.673 380.215 622.129 379.074C622.586 378.009 622.814 376.793 622.814 375.576ZM672.7 358.54C672.7 355.346 672.243 352.304 671.027 349.566C669.81 346.828 668.213 344.395 666.084 342.341C664.03 340.288 661.597 338.691 658.783 337.55C655.97 336.333 653.004 335.801 649.81 335.801C646.616 335.801 643.574 336.409 640.76 337.55C637.947 338.767 635.513 340.364 633.46 342.341C631.407 344.395 629.81 346.828 628.593 349.566C627.376 352.38 626.844 355.346 626.844 358.616C626.844 361.887 627.452 364.852 628.669 367.666C629.886 370.48 631.559 372.913 633.688 374.967C635.818 377.02 638.251 378.693 641.065 379.834C643.878 381.051 646.92 381.659 650.114 381.659C653.308 381.659 656.426 381.051 659.164 379.834C661.901 378.617 664.335 376.944 666.312 374.891C668.289 372.837 669.886 370.328 671.027 367.59C672.167 364.776 672.7 361.734 672.7 358.54ZM658.707 318.69C658.707 317.473 658.479 316.255 658.023 315.191C657.567 314.126 656.882 313.213 656.122 312.377C655.285 311.616 654.373 310.932 653.232 310.475C652.167 310.019 651.027 309.791 649.81 309.791C648.593 309.791 647.376 310.019 646.312 310.475C645.247 310.932 644.259 311.54 643.498 312.377C642.738 313.213 642.053 314.126 641.597 315.191C641.141 316.255 640.913 317.473 640.913 318.69C640.913 319.906 641.141 321.123 641.597 322.188C642.053 323.252 642.738 324.241 643.574 325.002C644.411 325.762 645.399 326.446 646.464 326.903C647.528 327.359 648.745 327.587 649.962 327.587C651.179 327.587 652.396 327.359 653.46 326.903C654.525 326.446 655.437 325.762 656.198 324.925C656.958 324.089 657.567 323.1 658.023 322.035C658.479 320.971 658.707 319.83 658.707 318.537V318.69ZM694.829 375.5C694.829 374.283 694.601 373.065 694.144 372.001C693.688 370.936 693.004 370.023 692.243 369.187C691.483 368.35 690.494 367.742 689.43 367.285C688.365 366.829 687.224 366.601 686.008 366.601C684.791 366.601 683.574 366.829 682.509 367.285C681.445 367.742 680.532 368.426 679.696 369.187C678.859 369.947 678.251 370.936 677.795 372.001C677.338 373.065 677.11 374.207 677.11 375.423C677.11 376.64 677.338 377.857 677.795 378.922C678.251 379.986 678.935 380.975 679.696 381.812C680.456 382.648 681.445 383.257 682.586 383.713C683.65 384.169 684.867 384.397 686.084 384.397C687.3 384.397 688.517 384.169 689.658 383.713C690.722 383.257 691.635 382.572 692.395 381.812C693.156 381.051 693.764 380.062 694.22 378.922C694.677 377.857 694.829 376.64 694.829 375.423V375.5Z" fill="black"/>
<g clip-path="url(#clip14_1_3547)">
<path d="M637.613 454.73H600V445.382H637.613V454.73ZM654.73 437.725H645.383V400H654.73V437.725ZM654.73 500H645.383V462.387H654.73V500ZM700 454.73H662.387V445.382H700V454.73Z" fill="black"/>
</g>
<path d="M238.966 548.997L202 533.039L210.901 517.642L243.536 541.379L238.966 548.997ZM238.966 551.082L243.536 558.781L210.901 582.518L202 567.121L238.966 551.082ZM240.73 500H258.692L254.442 540.337H245.301L240.81 500H240.73ZM254.362 559.663L258.612 600H240.65L245.14 559.663H254.281H254.362ZM288.601 517.562L297.662 532.959L260.536 548.917L256.126 541.299L288.681 517.562H288.601ZM260.456 551.002L297.582 567.041L288.521 582.438L255.965 558.701L260.376 551.002H260.456Z" fill="black"/>
<g clip-path="url(#clip15_1_3547)">
<path d="M700 550C700 547.724 700.823 545.854 702.387 544.228C703.951 542.602 706.008 541.789 708.395 541.789C710.782 541.789 712.757 542.602 714.403 544.228C716.049 545.854 716.872 547.805 716.872 549.919C716.872 552.033 716.049 554.065 714.403 555.691C712.757 557.317 710.782 558.13 708.477 558.13C706.173 558.13 704.198 557.317 702.551 555.691C700.905 554.065 700 552.277 700 550ZM708.56 526.586C708.56 525.041 709.053 523.821 710.123 522.764C711.193 521.707 712.428 521.219 713.992 521.219C715.556 521.219 716.79 521.707 717.86 522.764C718.93 523.821 719.424 525.041 719.424 526.586C719.424 528.049 718.93 529.269 717.86 530.244C716.872 531.22 715.556 531.789 713.992 531.789C712.428 531.789 711.111 531.301 710.123 530.244C709.136 529.187 708.56 527.968 708.56 526.586ZM708.56 573.496C708.56 571.789 709.136 570.406 710.37 569.512C711.523 568.618 712.757 568.13 713.992 568.13C715.391 568.13 716.625 568.618 717.778 569.594C718.93 570.569 719.424 571.87 719.424 573.496C719.424 575.041 718.93 576.26 717.86 577.317C716.79 578.374 715.473 578.862 713.992 578.862C712.51 578.862 711.193 578.374 710.123 577.317C709.053 576.26 708.56 575.041 708.56 573.577V573.496ZM721.564 512.764C721.564 511.382 722.14 510 723.21 508.943C724.28 507.886 725.514 507.317 727.078 507.317C728.642 507.317 729.877 507.886 730.946 508.943C732.016 510 732.51 511.301 732.51 512.764C732.51 513.984 732.099 515.122 731.111 516.342C730.206 517.561 728.889 518.13 726.996 518.13C725.432 518.13 724.198 517.561 723.128 516.504C722.058 515.447 721.564 514.146 721.564 512.764ZM721.646 587.073C721.646 585.773 722.14 584.553 723.128 583.415C724.115 582.277 725.432 581.707 727.078 581.707C728.56 581.707 729.877 582.195 730.946 583.252C732.016 584.309 732.51 585.61 732.51 587.073C732.51 588.537 732.016 589.837 730.946 590.894C729.959 591.951 728.642 592.439 727.078 592.439C725.514 592.439 724.198 591.951 723.21 590.894C722.222 589.837 721.646 588.537 721.646 587.073ZM729.136 549.919C729.136 546.098 730.041 542.683 731.852 539.593C733.663 536.504 736.132 533.984 739.342 532.114C742.551 530.163 746.091 529.187 750.041 529.187C755.72 529.187 760.658 531.22 764.774 535.285C768.889 539.35 771.029 544.228 771.029 549.919C771.029 555.61 768.971 560.407 764.856 564.472C760.741 568.537 755.802 570.65 750.041 570.65C744.28 570.65 739.259 568.618 735.226 564.553C731.193 560.488 729.054 555.61 729.054 549.919H729.136ZM741.564 508.293C741.564 506.098 742.469 504.146 744.115 502.52C745.761 500.894 747.737 500 750.041 500C752.181 500 754.074 500.813 755.802 502.439C757.531 504.065 758.354 506.016 758.354 508.293C758.354 510.569 757.531 512.439 755.967 514.065C754.321 515.691 752.428 516.504 750.041 516.504C747.49 516.504 745.432 515.691 743.868 513.984C742.305 512.358 741.564 510.407 741.564 508.293ZM741.646 591.626C741.646 589.35 742.469 587.398 744.033 585.772C745.597 584.146 747.654 583.333 750.123 583.333C752.346 583.333 754.321 584.146 755.967 585.772C757.613 587.398 758.436 589.35 758.436 591.708C758.436 594.065 757.613 595.935 755.967 597.561C754.321 599.187 752.346 600 750.206 600C747.819 600 745.844 599.187 744.198 597.48C742.551 595.772 741.646 593.903 741.646 591.626ZM767.49 512.683C767.49 511.22 767.984 509.919 769.054 508.862C770.123 507.805 771.44 507.236 772.922 507.236C774.403 507.236 775.72 507.805 776.79 508.862C777.778 509.919 778.354 511.219 778.354 512.602C778.354 513.902 777.86 515.122 776.955 516.26C775.967 517.398 774.65 517.968 773.004 517.968C771.358 517.968 770.041 517.398 769.054 516.342C768.066 515.285 767.49 514.065 767.49 512.683ZM767.49 587.073C767.49 585.61 767.984 584.309 769.054 583.252C770.123 582.195 771.44 581.707 772.922 581.707C774.403 581.707 775.72 582.277 776.79 583.333C777.778 584.39 778.354 585.691 778.354 587.073C778.354 588.699 777.778 590 776.708 590.976C775.556 591.951 774.321 592.439 773.004 592.439C771.358 592.439 770.041 591.87 769.054 590.813C768.066 589.756 767.49 588.456 767.49 587.073ZM780.576 526.504C780.576 524.878 781.152 523.577 782.222 522.602C783.292 521.626 784.609 521.139 786.008 521.139C787.572 521.139 788.807 521.626 789.877 522.683C790.947 523.74 791.44 524.959 791.44 526.504C791.44 527.886 790.947 529.106 789.877 530.163C788.889 531.22 787.572 531.708 786.008 531.708C784.362 531.708 783.045 531.138 782.058 530.081C781.07 528.943 780.576 527.805 780.576 526.586V526.504ZM780.576 573.415C780.576 571.708 781.152 570.325 782.387 569.431C783.539 568.536 784.774 568.049 786.008 568.049C787.407 568.049 788.642 568.537 789.794 569.512C790.947 570.488 791.44 571.789 791.44 573.415C791.44 574.878 790.947 576.098 789.877 577.154C788.807 578.211 787.572 578.699 786.008 578.699C784.362 578.699 783.045 578.13 782.058 577.073C781.07 576.016 780.576 574.797 780.576 573.415ZM783.128 549.837C783.128 547.724 783.951 545.772 785.597 544.146C787.243 542.52 789.218 541.707 791.605 541.707C793.992 541.707 796.049 542.52 797.613 544.146C799.177 545.772 800 547.642 800 549.919C800 552.602 799.095 554.634 797.284 556.016C795.473 557.399 793.58 558.13 791.605 558.13C789.3 558.13 787.325 557.317 785.679 555.691C784.033 554.065 783.128 552.033 783.128 549.837Z" fill="black"/>
</g>
<path d="M465.963 550.082L494.791 572.982L492.238 577.266L458.056 563.591L452.867 600H447.842L442.571 563.591L408.471 577.266L406 572.982L434.664 550.082L406 527.265L408.471 522.899L442.571 536.491L447.842 500H452.867L458.056 536.491L492.238 522.899L494.791 527.265L465.963 550.082Z" fill="black"/>
<g clip-path="url(#clip16_1_3547)">
<path d="M849.47 543.6H850.54L858.74 525.37C859.48 523.4 859.89 521.43 859.89 519.21C859.89 516.01 858.91 513.63 857.02 511.99C855.06 510.36 852.78 509.54 850.01 509.53C847.24 509.53 844.96 510.36 843 511.99C841.11 513.63 840.13 516.01 840.13 519.21C840.13 521.43 840.54 523.4 841.28 525.37L849.48 543.6H849.47Z" fill="black"/>
<path d="M850.53 556.4H849.46L841.26 574.63C840.52 576.6 840.11 578.57 840.11 580.79C840.11 583.99 841.09 586.37 842.98 588.01C844.94 589.64 847.22 590.46 849.99 590.47C852.76 590.47 855.04 589.64 857 588.01C858.89 586.37 859.87 583.99 859.87 580.79C859.87 578.57 859.46 576.6 858.72 574.63L850.52 556.4H850.53Z" fill="black"/>
<path d="M825.37 558.74L843.6 550.54V549.47L825.37 541.27C823.4 540.53 821.43 540.12 819.21 540.12C816.01 540.12 813.63 541.1 811.99 542.99C810.36 544.95 809.54 547.23 809.53 550C809.53 552.77 810.36 555.05 811.99 557.01C813.63 558.9 816.01 559.88 819.21 559.88C821.43 559.88 823.4 559.47 825.37 558.73V558.74Z" fill="black"/>
<path d="M890.47 550C890.47 547.23 889.64 544.95 888.01 542.99C886.37 541.1 883.99 540.12 880.79 540.12C878.57 540.12 876.6 540.53 874.63 541.27L856.4 549.47V550.54L874.63 558.74C876.6 559.48 878.57 559.89 880.79 559.89C883.99 559.89 886.37 558.91 888.01 557.02C889.64 555.06 890.46 552.78 890.47 550.01V550Z" fill="black"/>
<path d="M854.52 545.41L855.16 546.05C865.96 538.05 871.05 534.09 873.01 532.13C874.24 530.89 874.72 529.66 874.72 528.68C874.72 527.86 874.39 527.04 873.65 526.3C872.91 525.56 872.09 525.23 871.27 525.23C870.28 525.23 869.05 525.71 867.82 526.94C865.86 528.9 861.9 533.99 853.9 544.79L854.54 545.43L854.52 545.41Z" fill="black"/>
<path d="M845.48 554.59L844.84 553.95C834.04 561.95 828.95 565.91 826.99 567.87C825.76 569.11 825.28 570.34 825.28 571.32C825.28 572.14 825.61 572.96 826.35 573.7C827.09 574.44 827.91 574.77 828.73 574.77C829.72 574.77 830.95 574.29 832.18 573.06C834.14 571.1 838.1 566.01 846.1 555.21L845.46 554.57L845.48 554.59Z" fill="black"/>
<path d="M844.78 546.12L846.06 544.84C838.06 534.04 834.1 528.95 832.14 526.99C830.9 525.76 829.67 525.28 828.69 525.28C827.87 525.28 827.05 525.61 826.31 526.35C825.57 527.09 825.24 527.91 825.24 528.73C825.24 529.72 825.72 530.95 826.95 532.18C828.91 534.14 834 538.1 844.8 546.1L844.78 546.12Z" fill="black"/>
<path d="M855.22 553.88L853.94 555.16C861.94 565.96 865.9 571.05 867.86 573.01C869.1 574.24 870.33 574.72 871.31 574.72C872.13 574.72 872.95 574.39 873.69 573.65C874.43 572.91 874.76 572.09 874.76 571.27C874.76 570.28 874.28 569.05 873.05 567.82C871.09 565.86 866 561.9 855.2 553.9L855.22 553.88Z" fill="black"/>
<path d="M881.4 523.98C884.371 523.98 886.78 521.571 886.78 518.6C886.78 515.629 884.371 513.22 881.4 513.22C878.429 513.22 876.02 515.629 876.02 518.6C876.02 521.571 878.429 523.98 881.4 523.98Z" fill="black"/>
<path d="M898.166 510.635C900.599 508.202 900.599 504.258 898.166 501.825C895.733 499.392 891.788 499.392 889.355 501.825C886.922 504.258 886.922 508.202 889.355 510.635C891.788 513.068 895.733 513.068 898.166 510.635Z" fill="black"/>
<path d="M818.6 586.78C821.571 586.78 823.98 584.371 823.98 581.4C823.98 578.429 821.571 576.02 818.6 576.02C815.629 576.02 813.22 578.429 813.22 581.4C813.22 584.371 815.629 586.78 818.6 586.78Z" fill="black"/>
<path d="M810.636 598.175C813.069 595.742 813.069 591.798 810.636 589.365C808.203 586.932 804.258 586.932 801.825 589.365C799.392 591.798 799.392 595.742 801.825 598.175C804.258 600.608 808.203 600.608 810.636 598.175Z" fill="black"/>
<path d="M818.6 523.98C821.571 523.98 823.98 521.571 823.98 518.6C823.98 515.629 821.571 513.22 818.6 513.22C815.629 513.22 813.22 515.629 813.22 518.6C813.22 521.571 815.629 523.98 818.6 523.98Z" fill="black"/>
<path d="M810.636 510.635C813.069 508.202 813.069 504.258 810.636 501.825C808.203 499.392 804.258 499.392 801.825 501.825C799.392 504.258 799.392 508.202 801.825 510.635C804.258 513.068 808.203 513.068 810.636 510.635Z" fill="black"/>
<path d="M881.4 586.78C884.371 586.78 886.78 584.371 886.78 581.4C886.78 578.429 884.371 576.02 881.4 576.02C878.429 576.02 876.02 578.429 876.02 581.4C876.02 584.371 878.429 586.78 881.4 586.78Z" fill="black"/>
<path d="M893.77 587.53C890.33 587.53 887.54 590.32 887.54 593.76C887.54 597.2 890.33 599.99 893.77 599.99C897.21 599.99 900 597.2 900 593.76C900 590.32 897.21 587.53 893.77 587.53Z" fill="black"/>
</g>
<path d="M567 317C560.78 317 554.97 318.72 550 321.71C545.03 318.72 539.22 317 533 317C514.77 317 500 331.77 500 350C500 368.23 514.77 383 533 383C539.22 383 545.03 381.28 550 378.29C554.97 381.28 560.78 383 567 383C585.23 383 600 368.23 600 350C600 331.77 585.23 317 567 317ZM557.4 350C557.4 356.85 554.56 363.04 550 367.48C545.44 363.04 542.6 356.85 542.6 350C542.6 343.15 545.44 336.96 550 332.52C554.56 336.96 557.4 343.15 557.4 350ZM508.6 350C508.6 336.55 519.55 325.6 533 325.6C536.46 325.6 539.76 326.33 542.74 327.63C537.32 333.51 534 341.36 534 350C534 358.64 537.32 366.48 542.74 372.37C539.75 373.68 536.46 374.4 533 374.4C519.55 374.4 508.6 363.45 508.6 350ZM567 374.4C563.54 374.4 560.24 373.67 557.26 372.37C562.68 366.49 566 358.64 566 350C566 341.36 562.68 333.52 557.26 327.63C560.25 326.32 563.54 325.6 567 325.6C580.45 325.6 591.4 336.55 591.4 350C591.4 363.45 580.45 374.4 567 374.4Z" fill="black"/>
<g clip-path="url(#clip17_1_3547)">
<path d="M550.694 500L555.918 535.294L592.163 506.618L593.306 507.762L564.735 544.036L600 549.265V550.817L564.98 556.209L593.224 592.32L592.082 593.464L556.163 564.869L550.776 600H549.224L544 564.869L507.592 593.464L506.612 592.32L535.102 555.964L500 550.735V549.347L534.775 543.954L506.612 507.843L507.592 506.699L543.755 535.212L549.061 500.082H550.694V500Z" fill="black"/>
</g>
<g clip-path="url(#clip18_1_3547)">
<path d="M143.329 500H156.898V533.789L180.616 510.046L190.194 519.634L166.477 543.378H200V556.849H166.249L190.08 580.593L180.502 590.181L156.898 566.552V600H143.329V566.323L119.498 590.181L109.92 580.593L133.751 556.735H100V543.264H133.523L109.92 519.52L119.498 509.931L143.329 533.904V500Z" fill="black"/>
</g>
<g clip-path="url(#clip19_1_3547)">
<path d="M750 400C722.39 400 700 422.388 700 449.995V499.99H714.5V449.995C714.5 430.427 730.43 414.499 750 414.499C769.57 414.499 785.5 430.427 785.5 449.995V499.99H800V449.995C800 422.388 777.61 400 750 400Z" fill="black"/>
<path d="M750 426.157C737.18 426.157 726.75 436.586 726.75 449.405V500H741.25V449.395C741.25 444.575 745.17 440.646 750 440.646C754.83 440.646 758.75 444.565 758.75 449.395V499.99H773.25V449.395C773.25 436.576 762.82 426.147 750 426.147V426.157Z" fill="black"/>
</g>
<g clip-path="url(#clip20_1_3547)">
<path d="M399.85 500.007C394.303 497.158 386.807 494.76 377.211 492.81C367.616 490.861 358.621 489.962 349.925 489.962C341.229 489.962 332.234 490.861 322.639 492.81C313.043 494.76 305.547 497.158 300 500.007C302.849 494.459 305.247 486.813 307.196 477.367C309.145 467.771 310.195 458.774 310.195 450.078C310.195 441.382 309.145 432.386 307.196 422.791C305.247 413.195 302.849 405.698 300 400C305.547 402.849 313.193 405.247 322.639 407.197C332.084 409.146 341.229 410.045 349.925 410.045C358.621 410.045 367.616 409.146 377.211 407.197C386.807 405.247 394.303 402.849 399.85 400C397.001 405.548 394.753 413.195 392.804 422.791C390.855 432.386 389.955 441.382 389.955 450.078C389.955 459.224 391.004 468.521 392.954 478.117C394.903 487.713 397.301 494.909 400 500.007H399.85ZM382.009 482.165C378.861 471.519 377.361 460.874 377.361 450.228C377.361 439.583 378.861 428.787 382.009 418.292C371.364 421.44 360.72 422.94 350.075 422.94C339.43 422.94 328.636 421.44 318.141 418.292C321.289 428.937 322.789 439.583 322.789 450.228C322.789 460.874 321.289 471.669 318.141 482.165C328.786 479.016 339.43 477.517 350.075 477.517C360.72 477.517 371.514 479.016 382.009 482.165Z" fill="black"/>
</g>
<g clip-path="url(#clip21_1_3547)">
<path d="M465.173 300V334.882H500V365.034H465.173V400H434.996V365.034H400V334.882H434.996V300H465.173ZM464.159 336.064L435.926 335.895V364.02H464.159V336.064Z" fill="black"/>
</g>
<g clip-path="url(#clip22_1_3547)">
<path d="M150 300L100 400H200L150 300Z" fill="black"/>
</g>
<path d="M143.076 808H156.924C169.534 808 179.81 812.301 187.901 820.829C195.991 829.357 200 839.052 200 849.84C200 856.91 198.178 863.981 194.606 870.978C191.035 877.976 185.787 883.37 178.79 887.16C171.793 890.951 164.504 892.846 156.924 892.846H143.076C130.612 892.846 120.335 888.618 112.172 880.236C104.009 871.853 100 862.086 100 851.006C100 843.498 101.895 836.282 105.612 829.284C109.329 822.287 114.723 816.966 121.72 813.394C128.717 809.822 135.86 808 143.076 808ZM142.347 889.784C153.28 889.784 162.609 885.921 170.262 878.195C177.915 870.468 181.778 861.211 181.778 850.35C181.778 839.489 177.915 830.378 170.19 822.578C162.464 814.779 153.207 810.916 142.347 810.916C131.487 810.916 122.23 814.779 114.504 822.578C106.778 830.378 102.915 839.635 102.915 850.35C102.915 861.065 106.778 870.468 114.504 878.195C122.23 885.921 131.487 889.784 142.347 889.784Z" fill="white"/>
<path d="M32.91 826.19C30.44 825.4 27.86 825 25.16 825C20.68 825 16.49 826.12 12.6 828.36C8.71 830.6 5.61 833.67 3.37 837.56C1.12 841.46 0 845.64 0 850.13C0 854.62 1.12 858.8 3.36 862.69C5.6 866.58 8.7 869.65 12.59 871.89C16.48 874.13 20.67 875.25 25.15 875.25C27.85 875.25 30.43 874.85 32.9 874.06C27.13 872.64 22.48 869.71 18.98 865.22C15.48 860.73 13.74 855.69 13.74 850.12C13.74 844.55 15.49 839.5 18.98 835.02C22.47 830.54 27.14 827.61 32.91 826.19ZM16.23 832.87C12.26 837.96 10.25 843.77 10.25 850.13C10.25 856.49 12.26 862.29 16.23 867.39C17.28 868.74 18.43 869.97 19.67 871.08C17.84 870.6 16.07 869.87 14.34 868.87C10.98 866.93 8.3 864.27 6.39 860.95C4.44 857.57 3.49 854.03 3.49 850.13C3.49 846.23 4.44 842.69 6.39 839.31C8.3 836 10.97 833.33 14.34 831.39C16.07 830.4 17.83 829.66 19.67 829.18C18.43 830.29 17.28 831.52 16.23 832.87Z" fill="white"/>
<path d="M96.64 837.56C94.4 833.67 91.3 830.6 87.41 828.36C83.52 826.12 79.33 825 74.85 825C72.15 825 69.57 825.4 67.1 826.19C72.87 827.61 77.52 830.54 81.02 835.03C84.52 839.52 86.26 844.56 86.26 850.13C86.26 855.7 84.51 860.75 81.02 865.23C77.53 869.71 72.87 872.65 67.1 874.07C69.57 874.86 72.15 875.26 74.85 875.26C79.33 875.26 83.52 874.14 87.41 871.9C91.3 869.66 94.4 866.59 96.64 862.7C98.88 858.81 100 854.62 100 850.14C100 845.66 98.88 841.47 96.64 837.58V837.56ZM93.61 860.94C91.7 864.25 89.03 866.92 85.66 868.86C83.93 869.85 82.17 870.59 80.33 871.07C81.57 869.96 82.72 868.73 83.77 867.38C87.74 862.29 89.75 856.48 89.75 850.12C89.75 843.76 87.74 837.96 83.77 832.86C82.72 831.51 81.57 830.28 80.33 829.17C82.16 829.65 83.93 830.38 85.66 831.38C89.02 833.32 91.7 835.98 93.61 839.3C95.56 842.68 96.51 846.22 96.51 850.12C96.51 854.02 95.56 857.56 93.61 860.94Z" fill="white"/>
<path d="M60.7 851.88H67.09V848.38H60.7C60.43 846.69 59.76 845.13 58.8 843.8L63.32 839.28L60.85 836.81L56.33 841.33C55 840.37 53.44 839.71 51.75 839.43V833.04H48.25V839.43C46.56 839.7 45 840.37 43.67 841.33L39.15 836.81L36.68 839.28L41.2 843.8C40.24 845.13 39.58 846.69 39.3 848.38H32.91V851.88H39.3C39.57 853.57 40.24 855.13 41.2 856.46L36.68 860.98L39.15 863.45L43.67 858.93C45 859.89 46.56 860.55 48.25 860.83V867.22H51.75V860.83C53.44 860.56 55 859.89 56.33 858.93L60.85 863.45L63.32 860.98L58.8 856.46C59.76 855.13 60.42 853.57 60.7 851.88ZM50 857.48C45.95 857.48 42.65 854.18 42.65 850.13C42.65 846.08 45.95 842.78 50 842.78C54.05 842.78 57.35 846.08 57.35 850.13C57.35 854.18 54.05 857.48 50 857.48Z" fill="white"/>
<rect width="100" height="100" transform="translate(0 600)" fill="white"/>
<path fill-rule="evenodd" clip-rule="evenodd" d="M25 637.25H37.5V662.25H25V637.25ZM68.75 637.25H81.25V662.25H68.75V637.25Z" fill="white"/>
<path d="M62.5 631V643.5H56.25V631H18.75V643.5H0V662.25H6.25V649.75H18.75V668.5H56.25V649.75H62.5V668.5H100V631H62.5ZM25 662.25V637.25H37.5V662.25H25ZM68.75 662.25V637.25H81.25V662.25H68.75Z" fill="black"/>
<g clip-path="url(#clip23_1_3547)">
<path d="M500 884.946C500 888.978 498.527 892.608 495.449 895.564C492.37 898.521 488.889 900 484.873 900H415.127C411.111 900 407.63 898.521 404.551 895.564C401.473 892.608 400 888.978 400 884.946V815.054C400 810.887 401.473 807.392 404.551 804.436C407.63 801.479 411.111 800 415.127 800H484.873C488.889 800 492.37 801.479 495.449 804.436C498.527 807.392 500 811.022 500 815.054V884.946ZM491.432 884.946V815.054C491.432 813.306 490.763 811.828 489.558 810.484C488.22 809.14 486.747 808.468 485.007 808.468H415.261C413.521 808.468 412.048 809.14 410.71 810.484C409.371 811.828 408.835 813.306 408.835 815.054V884.946C408.835 886.694 409.505 888.172 410.71 889.516C412.048 890.86 413.521 891.532 415.261 891.532H485.007C486.747 891.532 488.22 890.86 489.558 889.516C490.897 888.172 491.432 886.694 491.432 884.946Z" fill="white"/>
</g>
<g clip-path="url(#clip24_1_3547)">
<path d="M800 850C800 877.614 777.614 900 750 900C722.386 900 700 877.614 700 850C700 822.386 722.386 800 750 800C777.614 800 800 822.386 800 850Z" fill="white"/>
</g>
<path d="M900 1052.04C888.915 1056.05 880.346 1062.65 874.135 1071.69H869.34C871.541 1065.32 875.079 1059.35 880.11 1053.69H870.44C867.06 1061.55 865.173 1065.87 864.78 1066.5C864.387 1067.13 863.679 1067.45 862.657 1067.45C861.871 1067.45 861.321 1067.21 860.928 1066.82C860.535 1066.42 859.434 1064.14 857.547 1059.9L851.258 1045.2C850.943 1044.49 850.55 1044.1 850.079 1044.1C849.686 1044.1 849.45 1044.17 849.292 1044.41C849.135 1044.65 848.113 1046.85 846.226 1051.17L840.094 1065.32C839.623 1066.66 838.679 1067.37 837.343 1067.37C836.164 1067.37 835.22 1066.66 834.591 1065.32L829.56 1053.61H819.89C824.921 1059.27 828.459 1065.24 830.66 1071.61H825.865C819.654 1062.57 811.006 1056.05 800 1051.96V1048.66C811.085 1044.65 819.654 1038.04 825.865 1029H830.66C828.459 1035.37 824.921 1041.42 819.89 1047H832.39C834.906 1052.74 836.242 1055.73 836.399 1056.05C836.557 1056.36 836.871 1056.52 837.264 1056.52C837.579 1056.52 837.814 1056.44 838.05 1056.2C838.286 1055.97 839.23 1053.69 841.116 1049.44L847.327 1035.29C847.799 1033.95 848.742 1033.32 850.079 1033.32C850.865 1033.32 851.415 1033.48 851.808 1033.87C852.201 1034.27 853.302 1036.55 855.11 1040.79L861.478 1055.5C861.714 1056.2 862.107 1056.6 862.657 1056.6C863.208 1056.6 863.522 1056.36 863.758 1055.97L867.61 1047.08H880.11C875.079 1041.42 871.462 1035.45 869.34 1029.08H874.135C880.346 1038.12 888.994 1044.65 900 1048.73V1052.04Z" fill="white"/>
<g clip-path="url(#clip25_1_3547)">
<path d="M400 800V900H300V800H400Z" fill="white"/>
</g>
<g clip-path="url(#clip26_1_3547)">
<path d="M300 950L250 1000L200 950L250 900L300 950Z" fill="white"/>
</g>
<g clip-path="url(#clip27_1_3547)">
<path d="M808.614 845.013H800C800.942 834.367 804.98 825.202 811.978 817.116L811.44 816.712L811.844 816.981L815.478 820.755C817.227 822.642 818.035 823.585 818.035 823.585C812.786 829.65 809.69 836.792 808.748 845.013H808.614ZM817.227 875.606C812.786 880.054 810.633 882.345 810.767 882.345L811.171 881.941C804.441 873.989 800.808 864.421 800 853.369H808.614C809.421 861.86 812.248 869.272 817.227 875.472V875.606ZM845.76 899.865C835.262 899.191 825.841 895.283 817.227 888.005L823.284 881.941C830.148 887.197 837.55 890.297 845.76 891.24V899.865ZM845.76 808.625C837.954 809.164 830.686 812.129 823.957 817.386C823.957 817.386 821.803 815.094 817.631 810.916L817.9 811.186C826.245 804.447 835.397 800.674 845.76 800V808.625ZM881.83 811.186L875.774 817.251C869.179 812.264 862.046 809.434 853.97 808.76V800.135C864.199 800.809 873.486 804.582 881.83 811.321V811.186ZM882.503 888.14C874.024 895.418 864.468 899.326 853.97 900V891.375C862.046 890.701 869.583 887.601 876.447 882.075L882.503 888.14ZM899.865 845.148H891.252C890.31 836.927 887.214 829.65 881.965 823.45L888.022 817.251C895.02 825.202 899.058 834.501 900 845.148H899.865ZM899.865 853.639C899.058 864.69 895.289 874.124 888.56 882.21L882.503 876.011C887.483 869.542 890.444 862.129 891.117 853.639H899.731H899.865Z" fill="white"/>
</g>
<g clip-path="url(#clip28_1_3547)">
<path d="M300 1058.45C280.024 1058.45 262.728 1061.9 248.356 1068.93C233.983 1075.95 223.873 1086.31 218.392 1100H200C203.898 1089.76 210.231 1080.24 218.879 1071.43C227.527 1062.62 239.342 1055.95 254.202 1051.43C256.517 1050.71 257.856 1050.24 258.344 1050C257.978 1049.76 256.517 1049.29 254.202 1048.57C239.342 1044.05 227.649 1037.38 218.879 1028.57C210.231 1019.76 203.898 1010.24 200 1000H218.392C223.995 1013.81 233.983 1024.17 248.356 1031.07C262.728 1037.98 280.024 1041.55 300 1041.55V1058.45Z" fill="white"/>
</g>
<g clip-path="url(#clip29_1_3547)">
<path d="M200 1100H181.608C176.005 1086.19 166.017 1075.83 151.644 1068.93C137.272 1062.02 119.976 1058.45 100 1058.45V1041.55C119.976 1041.55 137.272 1038.09 151.644 1031.07C166.017 1024.05 176.127 1013.69 181.608 1000H200C196.102 1010.24 189.769 1019.88 181.121 1028.57C172.473 1037.38 160.658 1044.05 145.798 1048.57C143.483 1049.29 142.144 1049.76 141.656 1050C142.022 1050.24 143.483 1050.71 145.798 1051.43C160.658 1055.95 172.351 1062.62 181.121 1071.43C189.769 1080.24 196.102 1089.76 200 1100Z" fill="white"/>
</g>
<g clip-path="url(#clip30_1_3547)">
<path d="M700 900.007H600V800H700V900.007ZM649.952 885.885C659.846 885.885 668.3 882.331 675.312 875.318C682.325 868.305 685.879 859.851 685.879 850.052C685.879 840.253 682.325 831.703 675.312 824.69C668.3 817.677 659.846 814.122 649.952 814.122C640.058 814.122 631.7 817.677 624.688 824.69C617.675 831.703 614.121 840.157 614.121 850.052C614.121 859.947 617.675 868.305 624.688 875.318C631.7 882.331 640.154 885.885 649.952 885.885Z" fill="white"/>
</g>
<g clip-path="url(#clip31_1_3547)">
<path d="M600 800V900H500V800H600ZM550 808.591H508.713V891.544H550V808.591Z" fill="white"/>
</g>
<g clip-path="url(#clip32_1_3547)">
<path d="M47.2335 1000H52.9271C55.1725 1013.55 60.9463 1024.54 70.2487 1032.96C79.551 1041.38 89.4948 1046.11 100 1047.23V1052.93C89.2542 1054.05 79.2302 1058.86 70.0081 1067.28C60.786 1075.7 55.0922 1086.61 52.8468 1100H47.1532C44.988 1086.37 39.2944 1075.38 29.9119 1067.04C20.5294 1058.7 10.5854 1053.97 0 1052.85V1047.15C10.6656 1045.95 20.6096 1041.22 29.9921 1032.8C39.3747 1024.38 45.0682 1013.47 47.1532 1000H47.2335Z" fill="white"/>
</g>
<path d="M341.207 1144.67H321.481C317.552 1144.67 314.504 1144.35 312.42 1143.7C310.335 1143.06 308.41 1141.54 306.646 1139.29C304.882 1137.05 304.08 1134.4 304.08 1131.6C304.08 1127.83 305.443 1124.7 308.09 1122.21C310.816 1119.73 313.863 1118.52 317.391 1118.52C319.235 1118.52 320.759 1118.76 321.962 1119.25L324.768 1120.29C325.41 1120.53 326.292 1121.57 327.495 1123.42L341.207 1144.67ZM341.207 1154.53C333.749 1165.6 329.339 1172.33 327.735 1174.66C326.132 1176.98 324.528 1178.67 322.764 1179.47C321 1180.27 319.155 1180.67 317.231 1180.67C313.622 1180.67 310.575 1179.47 307.929 1176.98C305.283 1174.5 304 1171.45 304 1167.76C304 1164.07 305.283 1160.87 307.769 1158.3C310.255 1155.73 313.221 1154.53 316.67 1154.53H341.126H341.207ZM349.706 1140.5C341.848 1125.82 337.759 1117.96 337.278 1117C336.796 1116.04 336.636 1114.59 336.636 1112.75C336.636 1109.3 337.839 1106.25 340.244 1103.77C342.65 1101.28 345.777 1100 349.626 1100C353.475 1100 356.603 1101.28 359.088 1103.77C361.574 1106.25 362.857 1109.38 362.857 1113.15C362.857 1114.84 362.376 1116.6 361.334 1118.6L349.626 1140.5H349.706ZM349.706 1159.58L361.414 1181.48C362.055 1182.68 362.456 1183.64 362.697 1184.44C362.937 1185.24 363.017 1186.21 363.017 1187.33C363.017 1190.54 361.815 1193.42 359.329 1196.07C356.843 1198.72 353.716 1200 349.787 1200C345.857 1200 342.891 1198.72 340.405 1196.23C337.919 1193.75 336.716 1190.62 336.716 1186.85C336.716 1185.24 337.197 1183.4 338.24 1181.48L349.787 1159.5L349.706 1159.58ZM358.206 1144.75L369.593 1127.11C371.838 1123.66 373.201 1121.65 373.682 1121.09C374.163 1120.53 375.286 1119.97 376.97 1119.41C378.654 1118.85 380.418 1118.52 382.182 1118.52C385.55 1118.52 388.597 1119.73 391.243 1122.21C393.969 1124.7 395.333 1127.83 395.333 1131.6C395.333 1134.32 394.451 1136.81 392.767 1139.21C391.083 1141.54 389.078 1143.06 386.993 1143.7C384.908 1144.35 381.861 1144.67 378.012 1144.67H358.286L358.206 1144.75ZM358.206 1154.61H382.824C386.191 1154.61 389.158 1155.89 391.644 1158.38C394.13 1160.87 395.333 1164.07 395.333 1167.84C395.333 1171.61 394.05 1174.66 391.484 1177.15C388.918 1179.55 385.71 1180.75 381.861 1180.75C378.012 1180.75 374.564 1178.91 372.159 1175.3L358.206 1154.61Z" fill="white"/>
<g clip-path="url(#clip33_1_3547)">
<path d="M100 950.042C100 963.821 95.0972 975.57 85.2916 985.376C75.4861 995.097 63.7363 1000 49.9577 1000C36.1792 1000 24.4294 995.097 14.6238 985.376C4.81826 975.655 0 963.821 0 950.042C0 936.264 4.90279 924.429 14.6238 914.708C24.3449 904.987 36.1792 900 49.9577 900C63.7363 900 75.5706 904.903 85.2916 914.708C95.0972 924.514 100 936.264 100 950.042ZM92.8994 950.042C92.8994 938.292 88.6729 928.149 80.3043 919.696C71.8512 911.243 61.7921 907.101 49.9577 907.101C38.1234 907.101 28.0642 911.327 19.6112 919.696C11.1581 928.149 7.01606 938.208 7.01606 950.042C7.01606 961.876 11.2426 971.936 19.6112 980.389C28.0642 988.842 38.1234 992.984 49.9577 992.984C61.7921 992.984 71.8512 988.757 80.3043 980.389C88.7574 971.936 92.8994 961.876 92.8994 950.042ZM82.2485 953.593H56.1285L69.1463 976.247L62.9755 979.797L49.9577 957.227L36.94 979.797L30.7692 976.247L43.787 953.593H17.7515V946.577H43.787L30.7692 923.838L36.94 920.288L49.9577 942.942L62.9755 920.288L69.1463 923.838L56.1285 946.577H82.2485V953.593Z" fill="white"/>
</g>
<g clip-path="url(#clip34_1_3547)">
<path d="M500 1100.05H400V1090.07H500V1100.05ZM449.88 1001C461.058 1001 470.673 1004.97 478.726 1013.02C486.779 1021.07 490.745 1030.69 490.745 1041.87C490.745 1053.05 486.779 1062.66 478.726 1070.72C470.673 1078.77 461.058 1082.74 449.88 1082.74C438.702 1082.74 429.087 1078.77 421.034 1070.72C412.981 1062.66 409.014 1053.17 409.014 1041.87C409.014 1030.57 412.981 1021.07 421.034 1013.02C429.087 1004.97 438.582 1001 449.88 1001ZM449.88 1072.76C458.413 1072.76 465.745 1069.76 471.755 1063.75C477.764 1057.74 480.769 1050.4 480.769 1041.99C480.769 1033.57 477.764 1026.12 471.755 1020.11C465.745 1014.1 458.413 1011.1 449.88 1011.1C441.346 1011.1 434.135 1014.1 428.125 1020.11C422.115 1026.12 419.111 1033.33 419.111 1041.99C419.111 1050.64 422.115 1057.74 428.125 1063.75C434.135 1069.76 441.466 1072.76 449.88 1072.76Z" fill="white"/>
</g>
<path d="M900 950.303C900 954.857 898.452 958.683 895.264 961.871C892.077 965.059 888.251 966.607 883.698 966.607C879.872 966.607 876.503 965.423 873.679 963.055C870.765 960.687 868.852 957.681 868.033 954.129H832.149C831.239 957.681 829.417 960.687 826.412 963.055C823.497 965.423 820.128 966.607 816.302 966.607C811.749 966.607 807.924 965.059 804.736 961.871C801.548 958.683 800 954.857 800 950.303C800 945.749 801.548 941.924 804.736 938.736C807.924 935.548 811.749 934 816.302 934C820.128 934 823.497 935.184 826.412 937.552C829.326 939.92 831.239 942.926 832.149 946.478H868.033C868.944 942.926 870.765 939.92 873.679 937.552C876.594 935.184 879.964 934 883.698 934C888.251 934 892.077 935.548 895.264 938.736C898.452 941.924 900 945.749 900 950.303ZM825.046 950.303C825.046 947.935 824.226 945.932 822.495 944.201C820.765 942.471 818.761 941.651 816.393 941.651C814.026 941.651 812.022 942.471 810.291 944.201C808.561 945.932 807.741 947.935 807.741 950.303C807.741 952.671 808.561 954.675 810.291 956.406C812.022 958.136 814.026 958.956 816.393 958.956C818.761 958.956 820.765 958.136 822.495 956.406C824.226 954.675 825.046 952.671 825.046 950.303Z" fill="white"/>
<path d="M100 1149.44L47.5511 1198.08H46.5986V1172.71H0V1126.24H46.5986V1101H47.5511L100 1149.44Z" fill="white"/>
<g clip-path="url(#clip35_1_3547)">
<path d="M674.415 1149.96L700 1157.57L699.164 1162.26L672.492 1159.33L693.227 1176.23L690.719 1180L667.391 1167.28L679.849 1190.8L676.254 1193.31L659.365 1172.72L662.124 1199.16L657.692 1200L649.833 1174.48L642.308 1200L637.625 1199.16L640.385 1172.72L623.746 1193.31L619.9 1190.8L632.525 1167.28L609.114 1180L606.605 1176.23L627.508 1159.33L600.836 1162.26L600 1157.57L625.167 1149.96L600 1142.43L600.836 1137.74L627.508 1140.67L606.605 1123.77L609.114 1120L632.525 1132.72L619.9 1109.21L623.746 1106.69L640.385 1127.28L637.625 1100.84L642.308 1100L649.833 1125.52L657.692 1100L662.124 1100.84L659.365 1127.28L676.254 1106.69L679.849 1109.21L667.391 1132.72L690.719 1120L693.227 1123.77L672.492 1140.67L699.164 1137.74L700 1142.43L674.415 1149.96Z" fill="white"/>
</g>
<g clip-path="url(#clip36_1_3547)">
<path d="M714.06 904.5C719.33 904.5 723.62 908.79 723.62 914.06C723.62 919.33 719.33 923.62 714.06 923.62C708.79 923.62 704.5 919.33 704.5 914.06C704.5 908.79 708.79 904.5 714.06 904.5ZM714.06 900C706.29 900 700 906.29 700 914.06C700 921.83 706.29 928.12 714.06 928.12C721.83 928.12 728.12 921.83 728.12 914.06C728.12 906.29 721.82 900 714.06 900Z" fill="white"/>
<path d="M785.94 904.5C791.21 904.5 795.5 908.79 795.5 914.06C795.5 919.33 791.21 923.62 785.94 923.62C780.67 923.62 776.38 919.33 776.38 914.06C776.38 908.79 780.67 904.5 785.94 904.5ZM785.94 900C778.18 900 771.88 906.29 771.88 914.06C771.88 921.83 778.17 928.12 785.94 928.12C793.71 928.12 800 921.83 800 914.06C800 906.29 793.71 900 785.94 900Z" fill="white"/>
<path d="M714.06 976.38C719.33 976.38 723.62 980.67 723.62 985.94C723.62 991.21 719.33 995.5 714.06 995.5C708.79 995.5 704.5 991.21 704.5 985.94C704.5 980.67 708.79 976.38 714.06 976.38ZM714.06 971.88C706.3 971.88 700 978.17 700 985.94C700 993.71 706.29 1000 714.06 1000C721.83 1000 728.12 993.71 728.12 985.94C728.12 978.17 721.83 971.88 714.06 971.88Z" fill="white"/>
<path d="M750 976.38C755.27 976.38 759.56 980.67 759.56 985.94C759.56 991.21 755.27 995.5 750 995.5C744.73 995.5 740.44 991.21 740.44 985.94C740.44 980.67 744.73 976.38 750 976.38ZM750 971.88C742.24 971.88 735.94 978.17 735.94 985.94C735.94 993.71 742.23 1000 750 1000C757.77 1000 764.06 993.71 764.06 985.94C764.06 978.17 757.77 971.88 750 971.88Z" fill="white"/>
<path d="M750 940.44C755.27 940.44 759.56 944.73 759.56 950C759.56 955.27 755.27 959.56 750 959.56C744.73 959.56 740.44 955.27 740.44 950C740.44 944.73 744.73 940.44 750 940.44ZM750 935.94C742.24 935.94 735.94 942.23 735.94 950C735.94 957.77 742.23 964.06 750 964.06C757.77 964.06 764.06 957.77 764.06 950C764.06 942.23 757.77 935.94 750 935.94Z" fill="white"/>
<path d="M714.06 940.44C719.33 940.44 723.62 944.73 723.62 950C723.62 955.27 719.33 959.56 714.06 959.56C708.79 959.56 704.5 955.27 704.5 950C704.5 944.73 708.79 940.44 714.06 940.44ZM714.06 935.94C706.29 935.94 700 942.24 700 950C700 957.76 706.29 964.06 714.06 964.06C721.83 964.06 728.12 957.77 728.12 950C728.12 942.23 721.83 935.94 714.06 935.94Z" fill="white"/>
<path d="M785.94 940.44C791.21 940.44 795.5 944.73 795.5 950C795.5 955.27 791.21 959.56 785.94 959.56C780.67 959.56 776.38 955.27 776.38 950C776.38 944.73 780.67 940.44 785.94 940.44ZM785.94 935.94C778.18 935.94 771.88 942.23 771.88 950C771.88 957.77 778.17 964.06 785.94 964.06C793.71 964.06 800 957.77 800 950C800 942.23 793.71 935.94 785.94 935.94Z" fill="white"/>
<path d="M750 904.5C755.27 904.5 759.56 908.79 759.56 914.06C759.56 919.33 755.27 923.62 750 923.62C744.73 923.62 740.44 919.33 740.44 914.06C740.44 908.79 744.73 904.5 750 904.5ZM750 900C742.24 900 735.94 906.29 735.94 914.06C735.94 921.83 742.23 928.12 750 928.12C757.77 928.12 764.06 921.83 764.06 914.06C764.06 906.29 757.76 900 750 900Z" fill="white"/>
<path d="M785.94 976.38C791.21 976.38 795.5 980.67 795.5 985.94C795.5 991.21 791.21 995.5 785.94 995.5C780.67 995.5 776.38 991.21 776.38 985.94C776.38 980.67 780.67 976.38 785.94 976.38ZM785.94 971.88C778.18 971.88 771.88 978.17 771.88 985.94C771.88 993.71 778.17 1000 785.94 1000C793.71 1000 800 993.71 800 985.94C800 978.17 793.71 971.88 785.94 971.88Z" fill="white"/>
</g>
<path d="M562.358 1020.68C562.358 1017.37 561.086 1014.43 558.541 1011.95C555.996 1009.47 553.087 1008.18 549.724 1008.18C546.361 1008.18 543.543 1009.38 540.998 1011.76C538.453 1014.15 537.18 1017 537.18 1020.13V1046.59H529.273L529.091 1021.23C529.091 1015.26 531.091 1010.2 535.181 1006.16C539.271 1002.11 544.179 1000 550.087 1000C555.995 1000 560.631 1002.11 564.63 1006.43C568.539 1010.75 570.538 1015.99 570.538 1022.15V1046.59H562.449V1020.59L562.358 1020.68ZM562.358 1054.41H570.538V1077.85C570.538 1084.1 568.539 1089.34 564.54 1093.57C560.631 1097.89 555.814 1100 549.997 1100C544.179 1100 539.089 1097.98 535.09 1093.84C531 1089.8 529 1084.74 529 1078.77L529.182 1054.41L537.089 1054.41V1079.87C537.089 1083 538.362 1085.85 540.907 1088.24C543.452 1090.63 546.361 1091.82 549.633 1091.82C552.905 1091.82 555.905 1090.53 558.45 1088.05C560.995 1085.57 562.267 1082.63 562.267 1079.32V1054.41H562.358Z" fill="white"/>
<path d="M307.092 975.091C307.092 965.866 307.092 957.472 307.092 950.184V927.306C307.092 925.83 307.092 925.092 307.092 925.092C307.092 925.092 307.646 924.723 308.845 923.985C310.044 923.247 311.704 922.324 313.734 921.125C315.763 919.925 318.069 918.635 320.652 917.066C323.235 915.498 325.91 914.022 328.585 912.454C334.95 908.856 342.145 904.705 350.263 900L393.525 925V974.999L350.263 1000L307 974.999L307.092 975.091Z" fill="white"/>
<path d="M700 975.5C700 977.477 699.62 979.302 698.935 981.051C698.251 982.8 697.262 984.245 695.97 985.538C694.753 986.831 693.232 987.82 691.559 988.58C689.886 989.341 688.061 989.645 686.084 989.645C684.563 989.645 683.118 989.417 681.673 988.961C680.228 988.505 678.935 987.82 677.719 986.983C676.502 986.147 675.437 985.082 674.601 983.941C673.688 982.724 673.004 981.431 672.548 979.986C669.582 983.104 666.16 985.463 662.281 987.136C658.403 988.809 654.297 989.645 650.038 989.645C645.779 989.645 641.597 988.809 637.719 987.136C633.764 985.463 630.342 983.104 627.376 979.986C626.92 981.431 626.236 982.8 625.399 983.941C624.563 985.082 623.498 986.147 622.357 986.983C621.217 987.82 619.924 988.505 618.555 988.961C617.186 989.417 615.742 989.645 614.221 989.645C612.243 989.645 610.418 989.265 608.669 988.58C606.92 987.82 605.475 986.831 604.183 985.614C602.89 984.321 601.901 982.876 601.141 981.127C600.38 979.378 600 977.553 600 975.576C600 973.598 600.38 971.772 601.065 970.099C601.825 968.426 602.814 966.906 604.031 965.689C605.323 964.472 606.768 963.483 608.441 962.723C610.114 961.962 611.939 961.658 613.916 961.658C615.741 961.658 617.491 961.962 619.164 962.646C619.087 961.962 619 960.5 619 960.5C619 960.5 618.935 959.225 618.935 958.464C618.935 955.194 619.468 952 620.532 948.882C621.597 945.764 623.042 943.026 624.943 940.44C626.844 937.854 629.05 935.649 631.711 933.748C634.297 931.846 637.186 930.325 640.304 929.336C638.859 928.043 637.719 926.446 636.882 924.621C636.046 922.796 635.665 920.894 635.665 918.917C635.665 916.94 636.046 915.115 636.73 913.442C637.414 911.768 638.479 910.248 639.696 909.031C640.913 907.814 642.434 906.749 644.183 906.065C645.932 905.304 647.757 905 649.658 905C651.559 905 653.384 905.38 655.133 906.065C656.882 906.825 658.327 907.814 659.62 909.031C660.913 910.248 661.901 911.768 662.662 913.442C663.422 915.115 663.726 916.94 663.726 918.917C663.726 920.894 663.346 922.72 662.586 924.545C661.825 926.37 660.76 927.967 659.316 929.336C662.89 930.477 666.16 932.15 668.973 934.356C671.787 936.561 674.144 939.223 676.046 942.113C677.947 945.079 679.24 948.349 680.076 951.848C680.837 955.346 681.065 958.996 680.608 962.723C682.281 962.114 684.03 961.734 685.856 961.734C687.757 961.734 689.582 962.114 691.331 962.799C693.08 963.483 694.525 964.472 695.817 965.765C697.11 967.058 698.099 968.502 698.783 970.175C699.468 971.849 700 973.522 700 975.5ZM622.814 975.576C622.814 974.359 622.662 973.141 622.205 972.077C621.749 971.012 621.065 970.023 620.304 969.263C619.468 968.426 618.555 967.818 617.415 967.362C616.35 966.905 615.209 966.677 613.992 966.677C612.776 966.677 611.559 966.905 610.494 967.362C609.43 967.818 608.441 968.426 607.681 969.263C606.844 970.099 606.236 971.012 605.78 972.077C605.323 973.141 605.095 974.283 605.095 975.576C605.095 976.869 605.323 978.009 605.78 979.074C606.236 980.139 606.92 981.127 607.681 981.964C608.517 982.8 609.43 983.409 610.57 983.865C611.711 984.321 612.852 984.549 614.068 984.549C615.285 984.549 616.502 984.321 617.567 983.865C618.631 983.409 619.544 982.724 620.304 981.964C621.065 981.203 621.673 980.215 622.129 979.074C622.586 978.009 622.814 976.793 622.814 975.576ZM672.7 958.54C672.7 955.346 672.243 952.304 671.027 949.566C669.81 946.828 668.213 944.395 666.084 942.341C664.03 940.288 661.597 938.691 658.783 937.55C655.97 936.333 653.004 935.801 649.81 935.801C646.616 935.801 643.574 936.409 640.76 937.55C637.947 938.767 635.513 940.364 633.46 942.341C631.407 944.395 629.81 946.828 628.593 949.566C627.376 952.38 626.844 955.346 626.844 958.616C626.844 961.887 627.452 964.852 628.669 967.666C629.886 970.48 631.559 972.913 633.688 974.967C635.818 977.02 638.251 978.693 641.065 979.834C643.878 981.051 646.92 981.659 650.114 981.659C653.308 981.659 656.426 981.051 659.164 979.834C661.901 978.617 664.335 976.944 666.312 974.891C668.289 972.837 669.886 970.328 671.027 967.59C672.167 964.776 672.7 961.734 672.7 958.54ZM658.707 918.69C658.707 917.473 658.479 916.255 658.023 915.191C657.567 914.126 656.882 913.213 656.122 912.377C655.285 911.616 654.373 910.932 653.232 910.475C652.167 910.019 651.027 909.791 649.81 909.791C648.593 909.791 647.376 910.019 646.312 910.475C645.247 910.932 644.259 911.54 643.498 912.377C642.738 913.213 642.053 914.126 641.597 915.191C641.141 916.255 640.913 917.473 640.913 918.69C640.913 919.906 641.141 921.123 641.597 922.188C642.053 923.252 642.738 924.241 643.574 925.002C644.411 925.762 645.399 926.446 646.464 926.903C647.528 927.359 648.745 927.587 649.962 927.587C651.179 927.587 652.396 927.359 653.46 926.903C654.525 926.446 655.437 925.762 656.198 924.925C656.958 924.089 657.567 923.1 658.023 922.035C658.479 920.971 658.707 919.83 658.707 918.537V918.69ZM694.829 975.5C694.829 974.283 694.601 973.065 694.144 972.001C693.688 970.936 693.004 970.023 692.243 969.187C691.483 968.35 690.494 967.742 689.43 967.285C688.365 966.829 687.224 966.601 686.008 966.601C684.791 966.601 683.574 966.829 682.509 967.285C681.445 967.742 680.532 968.426 679.696 969.187C678.859 969.947 678.251 970.936 677.795 972.001C677.338 973.065 677.11 974.207 677.11 975.423C677.11 976.64 677.338 977.857 677.795 978.922C678.251 979.986 678.935 980.975 679.696 981.812C680.456 982.648 681.445 983.257 682.586 983.713C683.65 984.169 684.867 984.397 686.084 984.397C687.3 984.397 688.517 984.169 689.658 983.713C690.722 983.257 691.635 982.572 692.395 981.812C693.156 981.051 693.764 980.062 694.22 978.922C694.677 977.857 694.829 976.64 694.829 975.423V975.5Z" fill="white"/>
<g clip-path="url(#clip37_1_3547)">
<path d="M637.613 1054.73H600V1045.38H637.613V1054.73ZM654.73 1037.72H645.383V1000H654.73V1037.72ZM654.73 1100H645.383V1062.39H654.73V1100ZM700 1054.73H662.387V1045.38H700V1054.73Z" fill="white"/>
</g>
<path d="M238.966 1149L202 1133.04L210.901 1117.64L243.536 1141.38L238.966 1149ZM238.966 1151.08L243.536 1158.78L210.901 1182.52L202 1167.12L238.966 1151.08ZM240.73 1100H258.692L254.442 1140.34H245.301L240.81 1100H240.73ZM254.362 1159.66L258.612 1200H240.65L245.14 1159.66H254.281H254.362ZM288.601 1117.56L297.662 1132.96L260.536 1148.92L256.126 1141.3L288.681 1117.56H288.601ZM260.456 1151L297.582 1167.04L288.521 1182.44L255.965 1158.7L260.376 1151H260.456Z" fill="white"/>
<g clip-path="url(#clip38_1_3547)">
<path d="M700 1150C700 1147.72 700.823 1145.85 702.387 1144.23C703.951 1142.6 706.008 1141.79 708.395 1141.79C710.782 1141.79 712.757 1142.6 714.403 1144.23C716.049 1145.85 716.872 1147.81 716.872 1149.92C716.872 1152.03 716.049 1154.07 714.403 1155.69C712.757 1157.32 710.782 1158.13 708.477 1158.13C706.173 1158.13 704.198 1157.32 702.551 1155.69C700.905 1154.07 700 1152.28 700 1150ZM708.56 1126.59C708.56 1125.04 709.053 1123.82 710.123 1122.76C711.193 1121.71 712.428 1121.22 713.992 1121.22C715.556 1121.22 716.79 1121.71 717.86 1122.76C718.93 1123.82 719.424 1125.04 719.424 1126.59C719.424 1128.05 718.93 1129.27 717.86 1130.24C716.872 1131.22 715.556 1131.79 713.992 1131.79C712.428 1131.79 711.111 1131.3 710.123 1130.24C709.136 1129.19 708.56 1127.97 708.56 1126.59ZM708.56 1173.5C708.56 1171.79 709.136 1170.41 710.37 1169.51C711.523 1168.62 712.757 1168.13 713.992 1168.13C715.391 1168.13 716.625 1168.62 717.778 1169.59C718.93 1170.57 719.424 1171.87 719.424 1173.5C719.424 1175.04 718.93 1176.26 717.86 1177.32C716.79 1178.37 715.473 1178.86 713.992 1178.86C712.51 1178.86 711.193 1178.37 710.123 1177.32C709.053 1176.26 708.56 1175.04 708.56 1173.58V1173.5ZM721.564 1112.76C721.564 1111.38 722.14 1110 723.21 1108.94C724.28 1107.89 725.514 1107.32 727.078 1107.32C728.642 1107.32 729.877 1107.89 730.946 1108.94C732.016 1110 732.51 1111.3 732.51 1112.76C732.51 1113.98 732.099 1115.12 731.111 1116.34C730.206 1117.56 728.889 1118.13 726.996 1118.13C725.432 1118.13 724.198 1117.56 723.128 1116.5C722.058 1115.45 721.564 1114.15 721.564 1112.76ZM721.646 1187.07C721.646 1185.77 722.14 1184.55 723.128 1183.41C724.115 1182.28 725.432 1181.71 727.078 1181.71C728.56 1181.71 729.877 1182.2 730.946 1183.25C732.016 1184.31 732.51 1185.61 732.51 1187.07C732.51 1188.54 732.016 1189.84 730.946 1190.89C729.959 1191.95 728.642 1192.44 727.078 1192.44C725.514 1192.44 724.198 1191.95 723.21 1190.89C722.222 1189.84 721.646 1188.54 721.646 1187.07ZM729.136 1149.92C729.136 1146.1 730.041 1142.68 731.852 1139.59C733.663 1136.5 736.132 1133.98 739.342 1132.11C742.551 1130.16 746.091 1129.19 750.041 1129.19C755.72 1129.19 760.658 1131.22 764.774 1135.28C768.889 1139.35 771.029 1144.23 771.029 1149.92C771.029 1155.61 768.971 1160.41 764.856 1164.47C760.741 1168.54 755.802 1170.65 750.041 1170.65C744.28 1170.65 739.259 1168.62 735.226 1164.55C731.193 1160.49 729.054 1155.61 729.054 1149.92H729.136ZM741.564 1108.29C741.564 1106.1 742.469 1104.15 744.115 1102.52C745.761 1100.89 747.737 1100 750.041 1100C752.181 1100 754.074 1100.81 755.802 1102.44C757.531 1104.06 758.354 1106.02 758.354 1108.29C758.354 1110.57 757.531 1112.44 755.967 1114.06C754.321 1115.69 752.428 1116.5 750.041 1116.5C747.49 1116.5 745.432 1115.69 743.868 1113.98C742.305 1112.36 741.564 1110.41 741.564 1108.29ZM741.646 1191.63C741.646 1189.35 742.469 1187.4 744.033 1185.77C745.597 1184.15 747.654 1183.33 750.123 1183.33C752.346 1183.33 754.321 1184.15 755.967 1185.77C757.613 1187.4 758.436 1189.35 758.436 1191.71C758.436 1194.07 757.613 1195.94 755.967 1197.56C754.321 1199.19 752.346 1200 750.206 1200C747.819 1200 745.844 1199.19 744.198 1197.48C742.551 1195.77 741.646 1193.9 741.646 1191.63ZM767.49 1112.68C767.49 1111.22 767.984 1109.92 769.054 1108.86C770.123 1107.81 771.44 1107.24 772.922 1107.24C774.403 1107.24 775.72 1107.81 776.79 1108.86C777.778 1109.92 778.354 1111.22 778.354 1112.6C778.354 1113.9 777.86 1115.12 776.955 1116.26C775.967 1117.4 774.65 1117.97 773.004 1117.97C771.358 1117.97 770.041 1117.4 769.054 1116.34C768.066 1115.28 767.49 1114.07 767.49 1112.68ZM767.49 1187.07C767.49 1185.61 767.984 1184.31 769.054 1183.25C770.123 1182.2 771.44 1181.71 772.922 1181.71C774.403 1181.71 775.72 1182.28 776.79 1183.33C777.778 1184.39 778.354 1185.69 778.354 1187.07C778.354 1188.7 777.778 1190 776.708 1190.98C775.556 1191.95 774.321 1192.44 773.004 1192.44C771.358 1192.44 770.041 1191.87 769.054 1190.81C768.066 1189.76 767.49 1188.46 767.49 1187.07ZM780.576 1126.5C780.576 1124.88 781.152 1123.58 782.222 1122.6C783.292 1121.63 784.609 1121.14 786.008 1121.14C787.572 1121.14 788.807 1121.63 789.877 1122.68C790.947 1123.74 791.44 1124.96 791.44 1126.5C791.44 1127.89 790.947 1129.11 789.877 1130.16C788.889 1131.22 787.572 1131.71 786.008 1131.71C784.362 1131.71 783.045 1131.14 782.058 1130.08C781.07 1128.94 780.576 1127.81 780.576 1126.59V1126.5ZM780.576 1173.41C780.576 1171.71 781.152 1170.33 782.387 1169.43C783.539 1168.54 784.774 1168.05 786.008 1168.05C787.407 1168.05 788.642 1168.54 789.794 1169.51C790.947 1170.49 791.44 1171.79 791.44 1173.41C791.44 1174.88 790.947 1176.1 789.877 1177.15C788.807 1178.21 787.572 1178.7 786.008 1178.7C784.362 1178.7 783.045 1178.13 782.058 1177.07C781.07 1176.02 780.576 1174.8 780.576 1173.41ZM783.128 1149.84C783.128 1147.72 783.951 1145.77 785.597 1144.15C787.243 1142.52 789.218 1141.71 791.605 1141.71C793.992 1141.71 796.049 1142.52 797.613 1144.15C799.177 1145.77 800 1147.64 800 1149.92C800 1152.6 799.095 1154.63 797.284 1156.02C795.473 1157.4 793.58 1158.13 791.605 1158.13C789.3 1158.13 787.325 1157.32 785.679 1155.69C784.033 1154.07 783.128 1152.03 783.128 1149.84Z" fill="white"/>
</g>
<path d="M465.963 1150.08L494.791 1172.98L492.238 1177.27L458.056 1163.59L452.867 1200H447.842L442.571 1163.59L408.471 1177.27L406 1172.98L434.664 1150.08L406 1127.27L408.471 1122.9L442.571 1136.49L447.842 1100H452.867L458.056 1136.49L492.238 1122.9L494.791 1127.27L465.963 1150.08Z" fill="white"/>
<g clip-path="url(#clip39_1_3547)">
<path d="M849.47 1143.6H850.54L858.74 1125.37C859.48 1123.4 859.89 1121.43 859.89 1119.21C859.89 1116.01 858.91 1113.63 857.02 1111.99C855.06 1110.36 852.78 1109.54 850.01 1109.53C847.24 1109.53 844.96 1110.36 843 1111.99C841.11 1113.63 840.13 1116.01 840.13 1119.21C840.13 1121.43 840.54 1123.4 841.28 1125.37L849.48 1143.6H849.47Z" fill="white"/>
<path d="M850.53 1156.4H849.46L841.26 1174.63C840.52 1176.6 840.11 1178.57 840.11 1180.79C840.11 1183.99 841.09 1186.37 842.98 1188.01C844.94 1189.64 847.22 1190.46 849.99 1190.47C852.76 1190.47 855.04 1189.64 857 1188.01C858.89 1186.37 859.87 1183.99 859.87 1180.79C859.87 1178.57 859.46 1176.6 858.72 1174.63L850.52 1156.4H850.53Z" fill="white"/>
<path d="M825.37 1158.74L843.6 1150.54V1149.47L825.37 1141.27C823.4 1140.53 821.43 1140.12 819.21 1140.12C816.01 1140.12 813.63 1141.1 811.99 1142.99C810.36 1144.95 809.54 1147.23 809.53 1150C809.53 1152.77 810.36 1155.05 811.99 1157.01C813.63 1158.9 816.01 1159.88 819.21 1159.88C821.43 1159.88 823.4 1159.47 825.37 1158.73V1158.74Z" fill="white"/>
<path d="M890.47 1150C890.47 1147.23 889.64 1144.95 888.01 1142.99C886.37 1141.1 883.99 1140.12 880.79 1140.12C878.57 1140.12 876.6 1140.53 874.63 1141.27L856.4 1149.47V1150.54L874.63 1158.74C876.6 1159.48 878.57 1159.89 880.79 1159.89C883.99 1159.89 886.37 1158.91 888.01 1157.02C889.64 1155.06 890.46 1152.78 890.47 1150.01V1150Z" fill="white"/>
<path d="M854.52 1145.41L855.16 1146.05C865.96 1138.05 871.05 1134.09 873.01 1132.13C874.24 1130.89 874.72 1129.66 874.72 1128.68C874.72 1127.86 874.39 1127.04 873.65 1126.3C872.91 1125.56 872.09 1125.23 871.27 1125.23C870.28 1125.23 869.05 1125.71 867.82 1126.94C865.86 1128.9 861.9 1133.99 853.9 1144.79L854.54 1145.43L854.52 1145.41Z" fill="white"/>
<path d="M845.48 1154.59L844.84 1153.95C834.04 1161.95 828.95 1165.91 826.99 1167.87C825.76 1169.11 825.28 1170.34 825.28 1171.32C825.28 1172.14 825.61 1172.96 826.35 1173.7C827.09 1174.44 827.91 1174.77 828.73 1174.77C829.72 1174.77 830.95 1174.29 832.18 1173.06C834.14 1171.1 838.1 1166.01 846.1 1155.21L845.46 1154.57L845.48 1154.59Z" fill="white"/>
<path d="M844.78 1146.12L846.06 1144.84C838.06 1134.04 834.1 1128.95 832.14 1126.99C830.9 1125.76 829.67 1125.28 828.69 1125.28C827.87 1125.28 827.05 1125.61 826.31 1126.35C825.57 1127.09 825.24 1127.91 825.24 1128.73C825.24 1129.72 825.72 1130.95 826.95 1132.18C828.91 1134.14 834 1138.1 844.8 1146.1L844.78 1146.12Z" fill="white"/>
<path d="M855.22 1153.88L853.94 1155.16C861.94 1165.96 865.9 1171.05 867.86 1173.01C869.1 1174.24 870.33 1174.72 871.31 1174.72C872.13 1174.72 872.95 1174.39 873.69 1173.65C874.43 1172.91 874.76 1172.09 874.76 1171.27C874.76 1170.28 874.28 1169.05 873.05 1167.82C871.09 1165.86 866 1161.9 855.2 1153.9L855.22 1153.88Z" fill="white"/>
<path d="M881.4 1123.98C884.371 1123.98 886.78 1121.57 886.78 1118.6C886.78 1115.63 884.371 1113.22 881.4 1113.22C878.429 1113.22 876.02 1115.63 876.02 1118.6C876.02 1121.57 878.429 1123.98 881.4 1123.98Z" fill="white"/>
<path d="M898.166 1110.64C900.599 1108.2 900.599 1104.26 898.166 1101.82C895.733 1099.39 891.788 1099.39 889.355 1101.82C886.922 1104.26 886.922 1108.2 889.355 1110.64C891.788 1113.07 895.733 1113.07 898.166 1110.64Z" fill="white"/>
<path d="M818.6 1186.78C821.571 1186.78 823.98 1184.37 823.98 1181.4C823.98 1178.43 821.571 1176.02 818.6 1176.02C815.629 1176.02 813.22 1178.43 813.22 1181.4C813.22 1184.37 815.629 1186.78 818.6 1186.78Z" fill="white"/>
<path d="M810.636 1198.18C813.069 1195.74 813.069 1191.8 810.636 1189.36C808.203 1186.93 804.258 1186.93 801.825 1189.36C799.392 1191.8 799.392 1195.74 801.825 1198.18C804.258 1200.61 808.203 1200.61 810.636 1198.18Z" fill="white"/>
<path d="M818.6 1123.98C821.571 1123.98 823.98 1121.57 823.98 1118.6C823.98 1115.63 821.571 1113.22 818.6 1113.22C815.629 1113.22 813.22 1115.63 813.22 1118.6C813.22 1121.57 815.629 1123.98 818.6 1123.98Z" fill="white"/>
<path d="M810.636 1110.64C813.069 1108.2 813.069 1104.26 810.636 1101.82C808.203 1099.39 804.258 1099.39 801.825 1101.82C799.392 1104.26 799.392 1108.2 801.825 1110.64C804.258 1113.07 808.203 1113.07 810.636 1110.64Z" fill="white"/>
<path d="M881.4 1186.78C884.371 1186.78 886.78 1184.37 886.78 1181.4C886.78 1178.43 884.371 1176.02 881.4 1176.02C878.429 1176.02 876.02 1178.43 876.02 1181.4C876.02 1184.37 878.429 1186.78 881.4 1186.78Z" fill="white"/>
<path d="M893.77 1187.53C890.33 1187.53 887.54 1190.32 887.54 1193.76C887.54 1197.2 890.33 1199.99 893.77 1199.99C897.21 1199.99 900 1197.2 900 1193.76C900 1190.32 897.21 1187.53 893.77 1187.53Z" fill="white"/>
</g>
<path d="M567 917C560.78 917 554.97 918.72 550 921.71C545.03 918.72 539.22 917 533 917C514.77 917 500 931.77 500 950C500 968.23 514.77 983 533 983C539.22 983 545.03 981.28 550 978.29C554.97 981.28 560.78 983 567 983C585.23 983 600 968.23 600 950C600 931.77 585.23 917 567 917ZM557.4 950C557.4 956.85 554.56 963.04 550 967.48C545.44 963.04 542.6 956.85 542.6 950C542.6 943.15 545.44 936.96 550 932.52C554.56 936.96 557.4 943.15 557.4 950ZM508.6 950C508.6 936.55 519.55 925.6 533 925.6C536.46 925.6 539.76 926.33 542.74 927.63C537.32 933.51 534 941.36 534 950C534 958.64 537.32 966.48 542.74 972.37C539.75 973.68 536.46 974.4 533 974.4C519.55 974.4 508.6 963.45 508.6 950ZM567 974.4C563.54 974.4 560.24 973.67 557.26 972.37C562.68 966.49 566 958.64 566 950C566 941.36 562.68 933.52 557.26 927.63C560.25 926.32 563.54 925.6 567 925.6C580.45 925.6 591.4 936.55 591.4 950C591.4 963.45 580.45 974.4 567 974.4Z" fill="white"/>
<g clip-path="url(#clip40_1_3547)">
<path d="M550.694 1100L555.918 1135.29L592.163 1106.62L593.306 1107.76L564.735 1144.04L600 1149.26V1150.82L564.98 1156.21L593.224 1192.32L592.082 1193.46L556.163 1164.87L550.776 1200H549.224L544 1164.87L507.592 1193.46L506.612 1192.32L535.102 1155.96L500 1150.74V1149.35L534.775 1143.95L506.612 1107.84L507.592 1106.7L543.755 1135.21L549.061 1100.08H550.694V1100Z" fill="white"/>
</g>
<g clip-path="url(#clip41_1_3547)">
<path d="M143.329 1100H156.898V1133.79L180.616 1110.05L190.194 1119.63L166.477 1143.38H200V1156.85H166.249L190.08 1180.59L180.502 1190.18L156.898 1166.55V1200H143.329V1166.32L119.498 1190.18L109.92 1180.59L133.751 1156.73H100V1143.26H133.523L109.92 1119.52L119.498 1109.93L143.329 1133.9V1100Z" fill="white"/>
</g>
<g clip-path="url(#clip42_1_3547)">
<path d="M750 1000C722.39 1000 700 1022.39 700 1050V1099.99H714.5V1050C714.5 1030.43 730.43 1014.5 750 1014.5C769.57 1014.5 785.5 1030.43 785.5 1050V1099.99H800V1050C800 1022.39 777.61 1000 750 1000Z" fill="white"/>
<path d="M750 1026.16C737.18 1026.16 726.75 1036.59 726.75 1049.41V1100H741.25V1049.4C741.25 1044.58 745.17 1040.65 750 1040.65C754.83 1040.65 758.75 1044.57 758.75 1049.4V1099.99H773.25V1049.4C773.25 1036.58 762.82 1026.15 750 1026.15V1026.16Z" fill="white"/>
</g>
<g clip-path="url(#clip43_1_3547)">
<path d="M399.85 1100.01C394.303 1097.16 386.807 1094.76 377.211 1092.81C367.616 1090.86 358.621 1089.96 349.925 1089.96C341.229 1089.96 332.234 1090.86 322.639 1092.81C313.043 1094.76 305.547 1097.16 300 1100.01C302.849 1094.46 305.247 1086.81 307.196 1077.37C309.145 1067.77 310.195 1058.77 310.195 1050.08C310.195 1041.38 309.145 1032.39 307.196 1022.79C305.247 1013.19 302.849 1005.7 300 1000C305.547 1002.85 313.193 1005.25 322.639 1007.2C332.084 1009.15 341.229 1010.05 349.925 1010.05C358.621 1010.05 367.616 1009.15 377.211 1007.2C386.807 1005.25 394.303 1002.85 399.85 1000C397.001 1005.55 394.753 1013.19 392.804 1022.79C390.855 1032.39 389.955 1041.38 389.955 1050.08C389.955 1059.22 391.004 1068.52 392.954 1078.12C394.903 1087.71 397.301 1094.91 400 1100.01H399.85ZM382.009 1082.16C378.861 1071.52 377.361 1060.87 377.361 1050.23C377.361 1039.58 378.861 1028.79 382.009 1018.29C371.364 1021.44 360.72 1022.94 350.075 1022.94C339.43 1022.94 328.636 1021.44 318.141 1018.29C321.289 1028.94 322.789 1039.58 322.789 1050.23C322.789 1060.87 321.289 1071.67 318.141 1082.16C328.786 1079.02 339.43 1077.52 350.075 1077.52C360.72 1077.52 371.514 1079.02 382.009 1082.16Z" fill="white"/>
</g>
<g clip-path="url(#clip44_1_3547)">
<path d="M465.173 900V934.882H500V965.034H465.173V1000H434.996V965.034H400V934.882H434.996V900H465.173ZM464.159 936.064L435.926 935.895V964.02H464.159V936.064Z" fill="white"/>
</g>
<g clip-path="url(#clip45_1_3547)">
<path d="M150 900L100 1000H200L150 900Z" fill="white"/>
</g>
<g clip-path="url(#clip46_1_3547)">
<rect width="100" height="100" transform="translate(800 100)" fill="white"/>
<path d="M900 100V200H860V100H900Z" fill="black"/>
<path d="M900 100V200H860V100H900Z" fill="#00E37C"/>
<path d="M810 100V200H800V100H810Z" fill="black"/>
<path d="M810 100V200H800V100H810Z" fill="#00E37C"/>
<path d="M845 100V200H825V100H845Z" fill="black"/>
<path d="M845 100V200H825V100H845Z" fill="#00E37C"/>
</g>
<g clip-path="url(#clip47_1_3547)">
<rect width="100" height="100" transform="translate(700 100)" fill="white"/>
<path d="M800 100V200H760V100H800Z" fill="#7BF92F"/>
<path d="M710 100V200H700V100H710Z" fill="#7BF92F"/>
<path d="M745 100V200H725V100H745Z" fill="#7BF92F"/>
</g>
<g clip-path="url(#clip48_1_3547)">
<rect width="100" height="100" transform="translate(600 100)" fill="white"/>
<path d="M700 100V200H660V100H700Z" fill="#CDEE00"/>
<path d="M610 100V200H600V100H610Z" fill="#CDEE00"/>
<path d="M645 100V200H625V100H645Z" fill="#CDEE00"/>
</g>
<g clip-path="url(#clip49_1_3547)">
<rect width="100" height="100" transform="translate(500 100)" fill="white"/>
<path d="M600 100V200H560V100H600Z" fill="#FFE800"/>
<path d="M510 100V200H500V100H510Z" fill="#FFE800"/>
<path d="M545 100V200H525V100H545Z" fill="#FFE800"/>
</g>
<g clip-path="url(#clip50_1_3547)">
<rect width="100" height="100" transform="translate(400 100)" fill="white"/>
<path d="M500 100V200H460V100H500Z" fill="#FD791A"/>
<path d="M410 100V200H400V100H410Z" fill="#FD791A"/>
<path d="M445 100V200H425V100H445Z" fill="#FD791A"/>
</g>
<g clip-path="url(#clip51_1_3547)">
<rect width="100" height="100" transform="translate(300 100)" fill="white"/>
<path d="M400 100V200H360V100H400Z" fill="#FA4848"/>
<path d="M310 100V200H300V100H310Z" fill="#FA4848"/>
<path d="M345 100V200H325V100H345Z" fill="#FA4848"/>
</g>
<g clip-path="url(#clip52_1_3547)">
<rect width="100" height="100" transform="translate(200 100)" fill="white"/>
<path d="M300 100V200H260V100H300Z" fill="#F246C9"/>
<path d="M210 100V200H200V100H210Z" fill="#F246C9"/>
<path d="M245 100V200H225V100H245Z" fill="#F246C9"/>
</g>
<g clip-path="url(#clip53_1_3547)">
<rect width="100" height="100" transform="translate(100 100)" fill="white"/>
<path d="M200 100V200H160V100H200Z" fill="#CE45FF"/>
<path d="M110 100V200H100V100H110Z" fill="#CE45FF"/>
<path d="M145 100V200H125V100H145Z" fill="#CE45FF"/>
</g>
<g clip-path="url(#clip54_1_3547)">
<rect width="100" height="100" transform="translate(0 100)" fill="white"/>
<path d="M100 100V200H60V100H100Z" fill="#7311FF"/>
<path d="M10 100V200H0V100H10Z" fill="#7311FF"/>
<path d="M45 100V200H25V100H45Z" fill="#7311FF"/>
</g>
<g clip-path="url(#clip55_1_3547)">
<rect width="100" height="100" transform="translate(800)" fill="white"/>
<path d="M900 0V100H860V0H900Z" fill="#0085FF"/>
<path d="M810 0V100H800V0H810Z" fill="#0085FF"/>
<path d="M845 0V100H825V0H845Z" fill="#0085FF"/>
</g>
<g clip-path="url(#clip56_1_3547)">
<rect width="100" height="100" transform="translate(700)" fill="white"/>
<path d="M800 0V100H760V0H800Z" fill="#20B0EC"/>
<path d="M710 0V100H700V0H710Z" fill="#20B0EC"/>
<path d="M745 0V100H725V0H745Z" fill="#20B0EC"/>
</g>
<g clip-path="url(#clip57_1_3547)">
<rect width="100" height="100" transform="translate(600)" fill="white"/>
<path d="M700 0V100H660V0H700Z" fill="#00EDCF"/>
<path d="M610 0V100H600V0H610Z" fill="#00EDCF"/>
<path d="M645 0V100H625V0H645Z" fill="#00EDCF"/>
</g>
<g clip-path="url(#clip58_1_3547)">
<rect width="100" height="100" transform="translate(500)" fill="white"/>
<rect width="100" height="100" transform="translate(500)" fill="black"/>
<path d="M600 0V100H560V0H600Z" fill="white"/>
<path d="M510 0V100H500V0H510Z" fill="white"/>
<path d="M545 0V100H525V0H545Z" fill="white"/>
</g>
<g clip-path="url(#clip59_1_3547)">
<rect width="100" height="100" transform="translate(400)" fill="white"/>
<path d="M500 0V100H460V0H500Z" fill="#CCCCCC"/>
<path d="M410 0V100H400V0H410Z" fill="#CCCCCC"/>
<path d="M445 0V100H425V0H445Z" fill="#CCCCCC"/>
</g>
<g clip-path="url(#clip60_1_3547)">
<rect width="100" height="100" transform="translate(300)" fill="white"/>
<path d="M400 0V100H360V0H400Z" fill="black"/>
<path d="M310 0V100H300V0H310Z" fill="black"/>
<path d="M345 0V100H325V0H345Z" fill="black"/>
</g>
<g clip-path="url(#clip61_1_3547)">
<rect width="300" height="100" fill="black"/>
<path d="M49.7562 73V27.1875H63.85C66.7042 27.1875 68.9646 27.6354 70.6312 28.5312C72.2979 29.4062 73.6625 30.7812 74.725 32.6562C75.7875 34.5312 76.3187 36.6042 76.3187 38.875C76.3187 40.9792 75.8604 42.875 74.9437 44.5625C74.0271 46.25 72.7354 47.6042 71.0687 48.625C73.2562 49.4167 74.975 50.7708 76.225 52.6875C77.4958 54.5833 78.1312 56.9271 78.1312 59.7188C78.1312 62.4896 77.5583 64.9271 76.4125 67.0312C75.2875 69.1146 73.7771 70.6354 71.8812 71.5938C69.9854 72.5312 67.3812 73 64.0687 73H49.7562ZM54.725 46.4375H62.85C64.975 46.4375 66.4854 46.2917 67.3812 46C68.6729 45.5625 69.6625 44.8333 70.35 43.8125C71.0583 42.7708 71.4125 41.3646 71.4125 39.5938C71.4125 37.9479 71.0896 36.5833 70.4437 35.5C69.8187 34.3958 68.975 33.6354 67.9125 33.2188C66.8708 32.8021 64.9854 32.5938 62.2562 32.5938H54.725V46.4375ZM54.725 67.5938H64.0687C66.1312 67.5938 67.6521 67.4062 68.6312 67.0312C70.0479 66.4896 71.1208 65.6042 71.85 64.375C72.6 63.125 72.975 61.5625 72.975 59.6875C72.975 57.9583 72.6208 56.5 71.9125 55.3125C71.2042 54.1042 70.2458 53.2292 69.0375 52.6875C67.85 52.125 65.975 51.8438 63.4125 51.8438H54.725V67.5938ZM106.275 27.1875H111.275V53.6562C111.275 58.0938 110.837 61.7396 109.962 64.5938C109.108 67.4271 107.535 69.6667 105.244 71.3125C102.973 72.9583 100.077 73.7812 96.5562 73.7812C91.5979 73.7812 87.8792 72.3021 85.4 69.3438C82.9417 66.3854 81.7125 61.1562 81.7125 53.6562V27.1875H86.6812V53.625C86.6812 57.7708 87.0042 60.7708 87.65 62.625C88.2958 64.4792 89.3479 65.8958 90.8062 66.875C92.2854 67.8333 94.0771 68.3125 96.1812 68.3125C99.7229 68.3125 102.285 67.3125 103.869 65.3125C105.473 63.3125 106.275 59.4167 106.275 53.625V27.1875ZM117.356 73V27.1875H122.325V73H117.356ZM127.531 73V27.1875H132.5V67.5938H151V73H127.531ZM153.706 73V27.1875H166.675C169.883 27.1875 172.321 27.4688 173.987 28.0312C176.175 28.7604 178.071 30.0938 179.675 32.0312C181.279 33.9688 182.529 36.4167 183.425 39.375C184.321 42.3125 184.769 45.8021 184.769 49.8438C184.769 55.0312 184.008 59.4375 182.487 63.0625C180.967 66.6667 179.008 69.2292 176.612 70.75C174.237 72.25 171.123 73 167.269 73H153.706ZM158.675 67.5938H166.675C169.904 67.5938 172.352 67.0729 174.019 66.0312C175.685 64.9688 176.967 63.2708 177.862 60.9375C179.05 57.8333 179.644 54.1146 179.644 49.7812C179.644 45.1354 179.008 41.4896 177.737 38.8438C176.487 36.1771 174.873 34.3958 172.894 33.5C171.56 32.8958 169.446 32.5938 166.55 32.5938H158.675V67.5938ZM188.6 73V27.1875H215.756V32.5938H193.569V46.625H214.35V52H193.569V67.5938H216.631V73H188.6ZM220.275 73V27.1875H236.931C240.41 27.1875 242.973 27.6146 244.619 28.4688C246.285 29.3229 247.65 30.75 248.712 32.75C249.775 34.7292 250.306 37.0312 250.306 39.6562C250.306 43.1146 249.4 45.9167 247.587 48.0625C245.796 50.2083 243.181 51.5729 239.744 52.1562C241.14 52.9896 242.202 53.8333 242.931 54.6875C244.41 56.4375 245.712 58.3854 246.837 60.5312L253.4 73H247.15L242.15 63.4688C240.212 59.7396 238.744 57.2292 237.744 55.9375C236.765 54.6458 235.806 53.7812 234.869 53.3438C233.952 52.8854 232.66 52.6562 230.994 52.6562H225.244V73H220.275ZM225.244 47.4062H235.931C238.265 47.4062 240.035 47.125 241.244 46.5625C242.452 46 243.41 45.1146 244.119 43.9062C244.827 42.6979 245.181 41.2917 245.181 39.6875C245.181 37.375 244.504 35.5625 243.15 34.25C241.796 32.9167 239.785 32.25 237.119 32.25H225.244V47.4062Z" fill="white"/>
</g>
<defs>
<clipPath id="clip0_1_3547">
<rect width="100" height="100" fill="white" transform="translate(400 200)"/>
</clipPath>
<clipPath id="clip1_1_3547">
<rect width="100" height="100" fill="white" transform="translate(700 200)"/>
</clipPath>
<clipPath id="clip2_1_3547">
<rect width="100" height="100" fill="white" transform="translate(300 200)"/>
</clipPath>
<clipPath id="clip3_1_3547">
<rect width="100" height="100" fill="white" transform="translate(200 300)"/>
</clipPath>
<clipPath id="clip4_1_3547">
<rect width="100" height="100" fill="white" transform="translate(800 200)"/>
</clipPath>
<clipPath id="clip5_1_3547">
<rect width="100" height="100" fill="white" transform="translate(200 400)"/>
</clipPath>
<clipPath id="clip6_1_3547">
<rect width="100" height="100" fill="white" transform="translate(100 400)"/>
</clipPath>
<clipPath id="clip7_1_3547">
<rect width="100" height="100" fill="white" transform="translate(600 200)"/>
</clipPath>
<clipPath id="clip8_1_3547">
<rect width="100" height="100" fill="white" transform="translate(500 200)"/>
</clipPath>
<clipPath id="clip9_1_3547">
<rect width="100" height="100" fill="white" transform="translate(0 400)"/>
</clipPath>
<clipPath id="clip10_1_3547">
<rect width="100" height="100" fill="white" transform="translate(0 300)"/>
</clipPath>
<clipPath id="clip11_1_3547">
<rect width="100" height="100" fill="white" transform="translate(400 400)"/>
</clipPath>
<clipPath id="clip12_1_3547">
<rect width="100" height="100" fill="white" transform="translate(600 500)"/>
</clipPath>
<clipPath id="clip13_1_3547">
<rect width="100" height="100" fill="white" transform="translate(700 300)"/>
</clipPath>
<clipPath id="clip14_1_3547">
<rect width="100" height="100" fill="white" transform="translate(600 400)"/>
</clipPath>
<clipPath id="clip15_1_3547">
<rect width="100" height="100" fill="white" transform="translate(700 500)"/>
</clipPath>
<clipPath id="clip16_1_3547">
<rect width="100" height="100" fill="white" transform="translate(800 500)"/>
</clipPath>
<clipPath id="clip17_1_3547">
<rect width="100" height="100" fill="white" transform="translate(500 500)"/>
</clipPath>
<clipPath id="clip18_1_3547">
<rect width="100" height="100" fill="white" transform="translate(100 500)"/>
</clipPath>
<clipPath id="clip19_1_3547">
<rect width="100" height="100" fill="white" transform="translate(700 400)"/>
</clipPath>
<clipPath id="clip20_1_3547">
<rect width="100" height="100" fill="white" transform="translate(300 400)"/>
</clipPath>
<clipPath id="clip21_1_3547">
<rect width="100" height="100" fill="white" transform="translate(400 300)"/>
</clipPath>
<clipPath id="clip22_1_3547">
<rect width="100" height="100" fill="white" transform="translate(100 300)"/>
</clipPath>
<clipPath id="clip23_1_3547">
<rect width="100" height="100" fill="white" transform="translate(400 800)"/>
</clipPath>
<clipPath id="clip24_1_3547">
<rect width="100" height="100" fill="white" transform="translate(700 800)"/>
</clipPath>
<clipPath id="clip25_1_3547">
<rect width="100" height="100" fill="white" transform="translate(300 800)"/>
</clipPath>
<clipPath id="clip26_1_3547">
<rect width="100" height="100" fill="white" transform="translate(200 900)"/>
</clipPath>
<clipPath id="clip27_1_3547">
<rect width="100" height="100" fill="white" transform="translate(800 800)"/>
</clipPath>
<clipPath id="clip28_1_3547">
<rect width="100" height="100" fill="white" transform="translate(200 1000)"/>
</clipPath>
<clipPath id="clip29_1_3547">
<rect width="100" height="100" fill="white" transform="translate(100 1000)"/>
</clipPath>
<clipPath id="clip30_1_3547">
<rect width="100" height="100" fill="white" transform="translate(600 800)"/>
</clipPath>
<clipPath id="clip31_1_3547">
<rect width="100" height="100" fill="white" transform="translate(500 800)"/>
</clipPath>
<clipPath id="clip32_1_3547">
<rect width="100" height="100" fill="white" transform="translate(0 1000)"/>
</clipPath>
<clipPath id="clip33_1_3547">
<rect width="100" height="100" fill="white" transform="translate(0 900)"/>
</clipPath>
<clipPath id="clip34_1_3547">
<rect width="100" height="100" fill="white" transform="translate(400 1000)"/>
</clipPath>
<clipPath id="clip35_1_3547">
<rect width="100" height="100" fill="white" transform="translate(600 1100)"/>
</clipPath>
<clipPath id="clip36_1_3547">
<rect width="100" height="100" fill="white" transform="translate(700 900)"/>
</clipPath>
<clipPath id="clip37_1_3547">
<rect width="100" height="100" fill="white" transform="translate(600 1000)"/>
</clipPath>
<clipPath id="clip38_1_3547">
<rect width="100" height="100" fill="white" transform="translate(700 1100)"/>
</clipPath>
<clipPath id="clip39_1_3547">
<rect width="100" height="100" fill="white" transform="translate(800 1100)"/>
</clipPath>
<clipPath id="clip40_1_3547">
<rect width="100" height="100" fill="white" transform="translate(500 1100)"/>
</clipPath>
<clipPath id="clip41_1_3547">
<rect width="100" height="100" fill="white" transform="translate(100 1100)"/>
</clipPath>
<clipPath id="clip42_1_3547">
<rect width="100" height="100" fill="white" transform="translate(700 1000)"/>
</clipPath>
<clipPath id="clip43_1_3547">
<rect width="100" height="100" fill="white" transform="translate(300 1000)"/>
</clipPath>
<clipPath id="clip44_1_3547">
<rect width="100" height="100" fill="white" transform="translate(400 900)"/>
</clipPath>
<clipPath id="clip45_1_3547">
<rect width="100" height="100" fill="white" transform="translate(100 900)"/>
</clipPath>
<clipPath id="clip46_1_3547">
<rect width="100" height="100" fill="white" transform="translate(800 100)"/>
</clipPath>
<clipPath id="clip47_1_3547">
<rect width="100" height="100" fill="white" transform="translate(700 100)"/>
</clipPath>
<clipPath id="clip48_1_3547">
<rect width="100" height="100" fill="white" transform="translate(600 100)"/>
</clipPath>
<clipPath id="clip49_1_3547">
<rect width="100" height="100" fill="white" transform="translate(500 100)"/>
</clipPath>
<clipPath id="clip50_1_3547">
<rect width="100" height="100" fill="white" transform="translate(400 100)"/>
</clipPath>
<clipPath id="clip51_1_3547">
<rect width="100" height="100" fill="white" transform="translate(300 100)"/>
</clipPath>
<clipPath id="clip52_1_3547">
<rect width="100" height="100" fill="white" transform="translate(200 100)"/>
</clipPath>
<clipPath id="clip53_1_3547">
<rect width="100" height="100" fill="white" transform="translate(100 100)"/>
</clipPath>
<clipPath id="clip54_1_3547">
<rect width="100" height="100" fill="white" transform="translate(0 100)"/>
</clipPath>
<clipPath id="clip55_1_3547">
<rect width="100" height="100" fill="white" transform="translate(800)"/>
</clipPath>
<clipPath id="clip56_1_3547">
<rect width="100" height="100" fill="white" transform="translate(700)"/>
</clipPath>
<clipPath id="clip57_1_3547">
<rect width="100" height="100" fill="white" transform="translate(600)"/>
</clipPath>
<clipPath id="clip58_1_3547">
<rect width="100" height="100" fill="white" transform="translate(500)"/>
</clipPath>
<clipPath id="clip59_1_3547">
<rect width="100" height="100" fill="white" transform="translate(400)"/>
</clipPath>
<clipPath id="clip60_1_3547">
<rect width="100" height="100" fill="white" transform="translate(300)"/>
</clipPath>
<clipPath id="clip61_1_3547">
<rect width="300" height="100" fill="white"/>
</clipPath>
</defs>
</svg>
